<svg xmlns="http://www.w3.org/2000/svg" height="800" width="1200" viewBox="-119.58657 -16.889075 1036.41694 101.33445"><path d="M792.9912 58.2775c-2.3187 0-4.2525 1.9338-4.2525 4.5438 0 2.6087 1.9338 4.5425 4.2525 4.5425 2.3188 0 4.2525-1.9338 4.2525-4.5425 0-2.61-1.9337-4.5438-4.2525-4.5438m-153.8625 8.795H658.65v-1.7387l-2.1238-.4838c-1.9337-.4837-2.805-1.5462-2.805-4.2537V34.31h4.5438c2.8025 0 4.2525.6763 4.445 6.5725l.4837 12.37c.3863 11.1138 3.5763 14.2075 8.99 14.2075 5.5075 0 6.9575-3.77 6.9575-9.085v-2.2237H677.11v1.6425c0 3.5775-.4813 6.09-1.8363 6.09-1.255 0-1.3525-.9663-1.6425-5.4125l-.5787-8.5038c-.7738-11.405-2.2238-15.3675-10.6325-16.915 8.0225-2.125 12.9512-8.0212 12.9512-16.43 0-10.9212-8.6012-16.14-16.8162-16.14h-32.9563v1.74l1.8363.3863c3.4787.7737 3.5762 2.61 3.5762 10.4387v38.465c0 8.6025-2.4175 12.7575-7.9275 12.7575-4.9262 0-7.6337-2.4162-7.6337-11.7912V6.765c0-2.7063.8687-3.4788 2.995-3.9625l2.61-.58v-1.74h-20.1975v1.74l2.1237.58c1.9338.58 2.61 1.3537 2.61 4.0587v44.9413c0 10.1475 5.8963 15.7537 14.885 15.7537 8.9875 0 13.4325-5.6062 13.4325-16.0437V9.5675c0-5.2188 1.065-7.055 5.315-7.055 3.3838 0 4.835 1.16 4.835 4.3487v53.735c0 2.7075-.87 3.6738-2.8037 4.1575l-2.1263.58zm129.7-60.2112c0-2.705.8713-3.575 2.8025-3.9625l2.61-.58V.4825h-20.1025v1.74l2.1263.58c1.9337.58 2.8025 1.3538 2.8025 4.0588V60.985c0 2.6088-1.0613 4.0588-4.06 4.0588-3.4788 0-3.9625-1.16-5.2175-6.8613L737.42.29h-3.8675l-11.7888 56.055c-1.355 6.2813-2.0312 7.7325-4.6412 8.505l-1.6438.4838v1.7387H729.3v-1.7387l-2.0288-.3875c-2.9-.58-3.6725-2.125-2.2225-9.4713l6.9588-35.8562 7.6337 37.9825c1.16 5.5087 1.065 6.5725-3.0925 7.345l-2.0287.3875v1.7387h51.2225v-22.035h-1.8363c-.9662 10.1475-2.995 19.7163-11.21 19.7163h-3.8675zm-30.1537 42.235v-2.6088h-13.0475l-.385 2.6088zm-53.9288-41.075v46.1975c0 6.9587 0 10.245-3.4787 10.825l-1.74.29v1.7387h14.2062v-1.7387c-6.185-.87-6.185-2.9963-6.185-10.535V10.9213L685.23 8.795l23.6787 58.2775h4.0575v-53.735c0-7.925 0-9.665 3.8675-10.7287l1.3525-.3863v-1.74h-14.595v1.74l1.6438.3863c4.9287.87 4.9287 2.8037 4.9287 10.1487V46.39l.9675-.29L693.155.4825h-13.8213v1.74l1.3525.3863c1.5488.4837 2.4175 2.2237 4.06 5.4125m-31.025-5.2188h3.8675c3.865 0 7.4413 2.5125 7.4413 15.0775 0 12.8538-2.705 14.11-8.1175 14.11h-3.1913zM589.3562 33.15c0 27.93-2.32 31.8938-7.3462 31.8938-5.025 0-7.2488-3.9638-7.2488-31.7013 0-26.8675 2.4175-30.7337 7.2488-30.7337 5.0262 0 7.3462 3.8662 7.3462 30.5412m10.535.58C599.8912 15.27 593.995 0 582.01 0c-12.08 0-17.7838 15.27-17.7838 33.73 0 18.5563 5.8963 33.8263 17.7838 33.8263 12.275 0 17.8812-15.27 17.8812-33.8263m-41.365-26.8687c0-2.705.6763-3.575 2.6075-4.0588l2.1263-.58v-1.74h-20.005v1.74l2.415.58c1.9325.4838 2.9975 1.16 2.9975 3.9625v46.4875c0 6.475-.5813 11.6938-5.4125 11.6938-3.0938 0-5.4125-2.4163-5.315-4.155.2875-2.9975 5.315-2.8025 5.7012-7.6363.29-3.4787-1.9337-4.9287-3.9625-5.2175-2.9962-.3875-6.6675 2.125-6.7662 7.1513-.0975 6.475 4.1562 12.3712 11.405 12.3712 8.0225 0 14.2087-5.4125 14.2087-15.755zm-322.8037 0c0-2.705.87-3.575 2.8025-3.9625l2.61-.58V.4825h-20.1025v1.74l2.1262.58c1.9325.58 2.8025 1.3538 2.8025 4.0588V60.985c0 2.6088-1.0637 4.0588-4.06 4.0588-3.4787 0-4.0587-1.16-5.315-6.8613L204.215.29h-3.865l-11.7913 56.055c-1.3525 6.2813-2.03 7.7325-4.6387 8.505l-1.6438.4838v1.7387h13.8213v-1.7387l-2.03-.3875c-2.8988-.58-3.6725-2.125-2.2225-9.4713l6.9587-36.05 7.635 38.1763c1.0625 5.5087 1.0625 6.5725-3.0925 7.345l-2.03.3875v1.7387h51.32v-22.035H250.8c-.9663 10.1475-2.9963 19.7163-11.2113 19.7163h-3.8662zm269.065-4.0588h2.1275c5.9937 0 8.0225 9.5675 8.6987 19.7163h1.835V.4825h-35.0825v22.0362h1.8363C484.88 12.37 486.91 2.8025 492.9012 2.8025h2.1263v57.7937c0 2.7075-.8688 3.6738-2.8025 4.1575l-2.5125.58v1.7388h20.8762v-1.7388l-2.9975-.6762c-1.8362-.4838-2.8037-1.0638-2.8037-4.0613zm-44.1663 30.83l2.995.0975c4.35.0963 5.605 1.74 6.4775 12.275h1.835V19.1363h-1.835c-1.065 8.4087-2.225 11.9837-6.38 12.0812l-3.0925.0963V2.8026h6.6688c7.4425 0 9.085 9.375 10.1475 19.7162h1.8362V.4826h-33.3425v1.74l2.1263.58c2.2212.58 2.8025 1.9337 2.8025 4.1562v53.6375c0 2.7075-.8688 3.6738-2.8025 4.1575l-2.1263.58v1.7388H480.24v-22.035h-1.8363c-1.16 10.0512-2.4162 19.7162-11.1137 19.7162h-6.6688V33.6326zm-36.4362 0l2.9962.0975c4.3488.0963 5.605 1.74 6.475 12.275h1.8363V19.1363h-1.8363c-1.0625 8.4087-2.2225 11.9837-6.3775 12.0812l-3.0937.0963V2.8026h6.6687c7.4425 0 9.085 9.5675 10.1475 19.7162h1.8363V.4826h-34.3088v1.74l3.0925.58c2.2225.58 2.8025 1.9337 2.8025 4.1562v53.6375c0 2.7075-.87 3.6738-2.8025 4.1575l-2.1262.58v1.7388h34.3087v-22.035h-1.835c-1.16 10.0512-2.4175 19.7162-11.115 19.7162h-6.6687V33.6326zm-39.7225-30.83h2.9c3.865 0 7.4412 2.5125 7.4412 15.0775 0 12.66-2.705 14.11-8.1175 14.11h-2.2237zm-14.5938 64.27h19.5238v-1.7387l-2.1275-.4838c-1.9325-.4837-2.8025-1.5462-2.8025-4.2537V34.31h3.5762c2.8025 0 4.2525 1.16 4.4463 6.5725l.4825 12.37c.3875 11.1137 3.5762 14.2075 8.9887 14.2075 5.5088 0 6.9575-3.77 6.9575-9.085v-2.2238h-2.0287v1.6425c0 3.5775-.4825 6.09-1.8363 6.09-1.2562 0-1.3537-.9662-1.6425-5.4125l-.5812-8.5037c-.7725-11.695-2.3188-15.3675-10.63-16.915 8.0212-2.125 12.95-8.0213 12.95-16.43 0-10.9213-8.6013-16.14-16.8163-16.14h-18.46v1.74l2.1263.58c1.9337.58 2.8025 1.3537 2.8025 4.0587v53.735c0 2.7075-.8688 3.6738-2.8025 4.1575l-2.1263.58zm-14.7862-64.27h2.1262c5.9913 0 8.0213 9.5675 8.6988 19.7163h1.835V.4825H332.66v22.0362h1.8362c.6763-10.1487 2.7063-19.7162 8.6988-19.7162h2.1262v57.7937c0 2.7075-.8712 3.6738-2.8025 4.1575l-2.5137.58v1.7388h20.3925v-1.7388l-2.5125-.58c-2.5125-.58-2.8025-2.5125-2.8025-4.1575zm-22.3263 46.97c0-19.8125-21.745-25.0312-21.745-39.4312 0-3.0925 1.16-7.7325 5.9913-7.7325 6.9587 0 9.5687 8.9887 10.7287 19.91h1.8363V.4825h-1.16c-.4838 2.1262-1.3538 3.0937-2.6088 3.0937-2.2237 0-3.3837-3.48-8.6987-3.48-8.215 0-13.8213 6.8625-13.8213 15.85 0 16.3338 21.7463 23.195 21.7463 38.2725 0 6.8613-3.19 10.7275-7.5388 10.7275-6.475 0-10.7275-7.6337-11.8875-19.9087h-1.8362v22.035h1.16c.9662-3.1888 2.2225-3.4788 3.285-3.4788 1.8375 0 3.77 3.8663 9.375 3.8663 8.6025 0 15.1737-7.4413 15.1737-17.6875M269.4525 6.8612c0-2.705.87-3.575 2.8025-3.9625l2.61-.58V.4825h-20.1025v1.74l2.1262.58c1.9325.58 2.8025 1.3537 2.8025 4.0587v53.735c0 2.7075-.87 3.6738-2.8025 4.1575l-2.1262.58v1.7388h31.6037v-22.035h-1.8375c-.965 10.1475-2.995 19.7162-11.21 19.7162h-3.8662zm-63.9813 42.235v-2.6087H192.425l-.3875 2.6087zm-55.8612 18.17h3.9625l8.9875-47.55h-1.3525l9.8575 47.55h3.48l11.7912-56.055c1.2563-5.8962 1.9325-7.925 4.2525-8.5062l1.8363-.4825v-1.74h-13.6275v1.74l2.03.3862c2.8987.58 3.575 2.32 2.2225 9.4713l-7.635 37.5962h1.16l-7.7325-39.625c-.7738-3.77-1.2563-6.8625 1.9337-7.4425l2.125-.3862v-1.74h-18.6525v1.74l1.2563.29c1.9337.4825 2.2237 1.6437 2.9962 5.3162l2.9963 14.4-.58-8.6987-6.6688 35.18h.87L147.29 10.0512c-.87-3.9625-1.16-6.9587 1.9325-7.5387l1.4512-.29v-1.74h-19.04v1.74l1.8363.4825c1.7387.4837 2.7062 1.3537 3.8662 6.6687zM98 33.6325l2.9962.0975c4.3488.0963 5.605 1.74 6.475 12.275h1.8363V19.1362h-1.8363c-1.0625 8.4088-2.2225 11.9838-6.3787 12.0813L98 31.3138V2.8025h6.6687c7.4413 0 9.085 9.5675 10.1475 19.7163h1.8363V.4825H83.31v1.74l2.1262.58c2.2225.58 2.8025 1.9338 2.8025 4.1563v53.6375c0 2.7075-.87 3.6737-2.8025 4.1575l-2.1262.58v1.7387h34.31v-22.035h-1.8375c-1.1588 10.0513-2.415 19.7163-11.1138 19.7163H98V33.6325zm-60.7913 33.44h19.8125v-1.7388l-2.2225-.4837c-1.74-.3863-2.9-1.5463-2.9-4.2538V34.2137h14.5938v26.3825c0 2.7075-1.1588 3.8675-2.8988 4.2538l-2.2225.4837v1.7388h19.8125v-1.7388l-2.1262-.58c-1.9325-.4837-2.8038-1.5475-2.8038-4.2525v-53.64c0-2.705.8713-3.575 2.8038-4.0587l2.1262-.58v-1.74H61.3712v1.74l2.2225.58c1.6425.4837 2.8988 1.16 2.8988 3.9625v24.8387H51.8987V6.765c0-2.7063 1.0638-3.4788 2.9-3.9625l2.2225-.58v-1.74H37.2087v1.74l2.1263.58c1.9337.58 2.8025 1.3537 2.8025 4.0587v53.735c0 2.7075-.8688 3.6738-2.8025 4.1575l-2.1263.58zm-14.7875-64.27h2.1275c5.9913 0 8.0213 9.5675 8.6975 19.7162h1.8363V.4825H0v22.0362h1.8362C2.5125 12.37 4.5425 2.8025 10.5337 2.8025H12.66v57.7937c0 2.7075-.8688 3.6738-2.8025 4.1575l-2.5125.58v1.7388h20.8762v-1.7388l-2.9962-.6762c-1.8363-.4838-2.8038-1.0638-2.8038-4.0613z" fill="#1c1c21"/></svg>