<?xml version="1.0" encoding="utf-8"?>
<!-- Generator: Adobe Illustrator 27.5.0, SVG Export Plug-In . SVG Version: 6.00 Build 0)  -->
<svg version="1.1" xmlns="http://www.w3.org/2000/svg" xmlns:xlink="http://www.w3.org/1999/xlink" x="0px" y="0px"
	 viewBox="0 0 500 500" style="enable-background:new 0 0 500 500;" xml:space="preserve">
<g id="Background">
	<radialGradient id="SVGID_1_" cx="250" cy="250" r="294.3375" gradientUnits="userSpaceOnUse">
		<stop  offset="0" style="stop-color:#FFFFFF"/>
		<stop  offset="1" style="stop-color:#E6E7E8"/>
	</radialGradient>
	<rect style="fill:url(#SVGID_1_);" width="500" height="500"/>
</g>
<g id="Objects">
	<g>
		<g>
			
				<linearGradient id="SVGID_00000065776874113598906450000010455300602127337889_" gradientUnits="userSpaceOnUse" x1="182.0255" y1="257.5984" x2="338.4125" y2="224.9759">
				<stop  offset="0" style="stop-color:#FBCD3E"/>
				<stop  offset="1" style="stop-color:#F96D34"/>
			</linearGradient>
			<path style="fill:url(#SVGID_00000065776874113598906450000010455300602127337889_);" d="M359.888,249.624h-69.572
				c7.698-9.903,12.114-22.484,11.596-36.114c-0.067-1.771-0.23-3.517-0.463-5.24c4.767-1.419,22.275-7.067,23.061-13.706
				c0,0-0.785,2.687-8.762,5.414c-6.383,2.183-12.577,4.391-14.799,5.186c-0.003-0.013-0.005-0.027-0.007-0.04l-59.571,21.008
				c0,0-31.867,9.709-32.66,23.492h-68.599c-1.138,0-2.07,0.931-2.07,2.07c0,1.138,0.932,2.07,2.07,2.07h219.776
				c1.138,0,2.07-0.931,2.07-2.07C361.958,250.555,361.026,249.624,359.888,249.624z M296.58,208.643c0,0,0.783,11.094-5.873,14.227
				l-10.702-8.092L296.58,208.643z"/>
			
				<linearGradient id="SVGID_00000016766530835371270470000012841328750271711662_" gradientUnits="userSpaceOnUse" x1="220.7696" y1="236.6421" x2="281.8556" y2="252.2072">
				<stop  offset="0" style="stop-color:#FBCD3E"/>
				<stop  offset="0.9981" style="stop-color:#F96D34;stop-opacity:0"/>
			</linearGradient>
			<path style="fill:url(#SVGID_00000016766530835371270470000012841328750271711662_);" d="M238.731,227.014
				c0,0-23.874,11.848-16.576,26.75h61.675c3.427-3.814,7.011-8.815,10.06-15.258C293.891,238.505,193.076,262.812,238.731,227.014z
				"/>
			
				<linearGradient id="SVGID_00000158726986600295753830000017824160016248474252_" gradientUnits="userSpaceOnUse" x1="171.5562" y1="207.4098" x2="327.9437" y2="174.7872">
				<stop  offset="0" style="stop-color:#FBCD3E"/>
				<stop  offset="1" style="stop-color:#F96D34"/>
			</linearGradient>
			<path style="fill:url(#SVGID_00000158726986600295753830000017824160016248474252_);" d="M239.805,223.914L239.805,223.914
				l5.612-1.958l-10.572-7.048c0,0,4.307-3.132,11.094,0.131c6.787,3.263,13.443,1.044,13.443,1.044l19.839-11.486l-9.919,3.002
				l-22.449-14.357c5.482-3.263,13.182-4.046,21.013-0.914c7.831,3.132,20.752,6.917,29.236,4.438
				c0.433-0.127,0.891-0.258,1.361-0.392c-0.003-0.007-0.005-0.013-0.008-0.02c3.511-0.963,12.281-3.021,12.281-3.021
				c-5.177,0.905-11.263,1.552-12.8,1.71c-8.257-20.42-28.363-34.822-51.525-34.757c-17.226,0.049-32.6,7.962-42.724,20.338
				c-6.743,8.243-10.53,18.59-10.07,29.229C194.216,223.685,201.973,239.648,239.805,223.914z"/>
			
				<linearGradient id="SVGID_00000114794083299798771000000012198663833335008670_" gradientUnits="userSpaceOnUse" x1="232.2489" y1="183.0709" x2="254.0298" y2="246.8438">
				<stop  offset="0" style="stop-color:#FBCD3E;stop-opacity:0"/>
				<stop  offset="1" style="stop-color:#F96D34"/>
			</linearGradient>
			<path style="fill:url(#SVGID_00000114794083299798771000000012198663833335008670_);" d="M225.689,228.711
				c0,0-42.132-3.036-9.212-50.369c0,0,21.846-20.784,51.429-2.883C267.906,175.46,178.963,216.726,225.689,228.711z"/>
		</g>
		<text transform="matrix(1 0 0 1 194.2124 335.6666)" style="fill:#383838; font-family:'D-DIN'; font-size:24.0881px;">slogan here</text>
		<g>
			
				<text transform="matrix(1 0 0 1 100.2813 314.7688)" style="fill:#383838; font-family:'FiraSans-Bold'; font-size:65.7823px; letter-spacing:-1;">HORIZONS</text>
			<g>
				<path style="fill:#383838;" d="M129.027,295.232v19.537h10.788v-21.234c-4.253,0.557-8.337,1.125-12.244,1.697H129.027z"/>
				<path style="fill:#383838;" d="M115.345,314.769v-17.648c-3.82,0.622-7.419,1.238-10.788,1.839v15.809H115.345z"/>
				<path style="fill:#383838;" d="M165.47,315.887c12.893,0,20.589-9.012,20.589-23.944c0-1.097-0.052-2.15-0.131-3.179
					c-3.821,0.293-7.563,0.606-11.23,0.934c0.029,0.718,0.047,1.462,0.047,2.244c0,11.578-3.091,16.051-9.275,16.051
					c-5.92,0-9.21-4.473-9.21-16.051c0-0.138,0.006-0.262,0.007-0.397c-3.875,0.43-7.641,0.875-11.291,1.33
					C145.292,307.485,152.912,315.887,165.47,315.887z"/>
				<path style="fill:#383838;" d="M201.979,314.769v-17.432h4.21l9.341,17.432h12.17l-11.578-19.405
					c4.631-2.11,7.362-4.789,8.335-8.718c-3.927,0.131-7.801,0.285-11.614,0.462c-1.115,1.926-3.243,2.796-6.325,2.796h-4.538
					v-2.225c-3.656,0.214-7.252,0.448-10.788,0.698v26.392H201.979z"/>
				<path style="fill:#383838;" d="M241.251,314.769v-28.526c-3.638,0.053-7.235,0.127-10.788,0.222v28.305H241.251z"/>
				<path style="fill:#383838;" d="M245.329,314.769h31.772l1.052-8.617h-20.128l13.627-19.829
					c-4.079-0.081-8.115-0.132-12.108-0.156l-14.215,20.512V314.769z"/>
				<path style="fill:#383838;" d="M299.664,315.887c12.893,0,20.589-9.012,20.589-23.944c0-1.141-0.058-2.233-0.143-3.3
					c-3.802-0.29-7.579-0.554-11.328-0.789c0.104,1.252,0.158,2.611,0.158,4.09c0,11.578-3.092,16.051-9.275,16.051
					c-5.92,0-9.209-4.473-9.209-16.051c0-1.865,0.092-3.526,0.256-5.033c-3.761-0.157-7.492-0.289-11.191-0.396
					c-0.249,1.71-0.38,3.519-0.38,5.429C279.14,307.138,286.837,315.887,299.664,315.887z"/>
				<path style="fill:#383838;" d="M334.989,314.769v-16.708c0-3.028-0.113-5.739-0.279-8.176c-3.124-0.293-6.233-0.569-9.325-0.824
					v25.709H334.989z"/>
				<path style="fill:#383838;" d="M346.763,314.769h13.748v-22.053c-3.206-0.403-6.4-0.787-9.579-1.149
					c0.229,5.494,0.876,10.017,1.356,13.006l-5.115-13.424c-3.207-0.35-6.4-0.679-9.576-0.989L346.763,314.769z"/>
				<path style="fill:#383838;" d="M388.206,302.271c0,3.486-2.763,5.591-7.235,5.591c-4.539,0-8.157-1.645-11.512-4.473
					l-5.46,5.986c3.75,3.617,9.407,6.512,17.301,6.512c11.38,0,18.09-5.92,18.09-14.406c0-1.057-0.078-2.036-0.231-2.948
					c-6.433-1.131-12.824-2.17-19.169-3.126C386.514,297.424,388.206,298.94,388.206,302.271z"/>
			</g>
		</g>
	</g>
</g>
</svg>
