<svg version="1.1" id="Layer_1" xmlns="http://www.w3.org/2000/svg" xmlns:xlink="http://www.w3.org/1999/xlink" x="0px" y="0px"
	 width="100%" viewBox="0 0 512 512" enable-background="new 0 0 512 512" xml:space="preserve">
<path fill="#ffffff" opacity="1.000000" stroke="none" 
	d="
M1.000000,392.468658 
	C4.352205,386.943237 6.694118,381.289459 10.948802,376.738953 
	C15.135832,372.260742 20.048302,368.968658 25.393114,366.252075 
	C38.608204,359.535339 51.906223,352.981934 65.150223,346.321777 
	C72.598663,342.576050 74.105209,334.447449 68.856285,328.033203 
	C61.718094,319.310181 58.289204,309.007446 56.667950,297.997437 
	C55.034966,286.907776 55.281853,275.812195 56.704906,264.744446 
	C58.728077,249.009232 70.840088,233.463516 86.513565,227.655106 
	C98.235352,223.311142 110.337593,222.793930 122.043770,227.565308 
	C138.503143,234.274063 149.706665,246.041946 152.210480,264.077057 
	C154.548935,280.920898 154.853470,297.835571 148.577896,314.214081 
	C146.401428,319.894379 143.151413,324.867645 139.595169,329.650970 
	C135.843155,334.697540 136.888046,342.588043 142.504440,345.587799 
	C148.947266,349.028992 155.698044,351.891571 162.294250,355.048981 
	C164.159607,355.941833 165.801529,355.493805 167.530045,354.650177 
	C178.744858,349.177032 189.954239,343.691467 201.220932,338.326599 
	C205.659485,336.213074 207.626007,332.754761 207.636536,328.003113 
	C207.653503,320.337311 207.631744,312.671417 207.656784,305.005646 
	C207.662369,303.294495 207.449631,301.737915 206.201569,300.393280 
	C193.224808,286.412323 186.436264,269.581848 183.822449,250.941010 
	C183.435364,248.180511 182.313324,246.307312 180.348267,244.658844 
	C177.190491,242.009766 175.791794,238.371490 175.752319,234.501938 
	C175.587463,218.338928 174.612091,202.086716 175.906586,186.026230 
	C178.756027,150.673798 201.826553,122.818901 236.485855,114.946487 
	C263.351257,108.844345 288.258148,113.563416 309.521454,132.289505 
	C327.187134,147.847214 336.306610,167.329147 336.334351,190.951111 
	C336.351196,205.282883 336.196075,219.616791 336.411255,233.945343 
	C336.487640,239.032059 334.628113,243.009140 331.190796,246.384018 
	C329.573761,247.971680 328.544830,249.515701 328.291168,251.896988 
	C326.392303,269.724762 319.553497,285.512848 308.009583,299.194977 
	C306.155640,301.392334 305.241211,303.479584 305.298523,306.339142 
	C305.448761,313.835327 305.478882,321.339630 305.298889,328.834473 
	C305.198914,332.998108 306.834686,335.812988 310.486450,337.635834 
	C321.810425,343.288391 333.144867,348.920776 344.422516,354.664581 
	C347.069183,356.012573 349.377472,355.916046 351.972565,354.530182 
	C357.404968,351.629150 362.945953,348.930420 368.455505,346.175018 
	C374.995880,342.904144 377.214722,335.173767 372.750641,329.377716 
	C366.428192,321.168915 362.056610,312.138855 360.393707,301.965607 
	C357.718719,285.600555 356.747864,269.057434 362.990997,253.354691 
	C369.012756,238.208923 385.306244,224.826187 404.490448,224.571686 
	C415.603546,224.424255 426.132782,225.876892 435.204712,232.632965 
	C448.607117,242.614014 456.524872,255.710342 456.299316,272.864014 
	C456.159882,283.468994 457.047150,294.079315 454.579346,304.649628 
	C452.452301,313.760468 448.630829,321.861450 443.075836,329.227264 
	C438.338531,335.508850 440.024323,343.042053 447.117523,346.575745 
	C461.116272,353.549561 475.049622,360.658508 489.129974,367.463470 
	C500.867798,373.136322 508.755127,381.974823 512.825134,394.699097 
	C513.000000,407.020905 513.000000,419.041779 512.713013,431.486816 
	C511.632507,432.119476 510.786530,432.214294 510.053070,432.552856 
	C485.099548,444.069519 459.563477,453.577759 431.800110,455.546906 
	C427.209290,455.872528 425.092407,457.776947 425.192078,463.092407 
	C425.503937,479.721191 425.116455,496.363159 425.000000,513.000000 
	C419.311951,513.000000 413.623932,513.000000 407.599792,512.608765 
	C407.385559,511.397186 407.613007,510.577026 407.613800,509.756653 
	C407.637817,485.424286 407.751434,461.091003 407.550629,436.760315 
	C407.510010,431.842102 406.361267,426.923187 404.627289,422.217072 
	C399.512421,408.334961 388.931610,399.475311 376.849182,392.056183 
	C363.214355,383.683746 348.686371,376.983307 334.448608,369.745148 
	C327.085175,366.001709 319.630157,362.438293 311.887970,358.632050 
	C304.138947,384.389740 287.130554,399.385681 261.134583,401.009247 
	C231.059250,402.887604 212.029861,386.606110 201.820618,358.752014 
	C198.895081,360.168243 196.192200,361.411041 193.547516,362.767334 
	C173.423157,373.087738 152.686142,382.233124 133.492523,394.337158 
	C114.976967,406.013641 105.643654,422.345123 106.225037,444.586121 
	C106.764870,465.238007 106.341255,485.914917 106.358406,506.580811 
	C106.360191,508.736206 106.131340,510.926270 107.000000,513.000000 
	C100.978844,513.000000 94.957695,513.000000 88.612854,512.612976 
	C89.115112,494.441101 88.458420,476.646698 88.644699,458.857880 
	C88.676384,455.832825 86.813927,455.587952 84.410637,455.308746 
	C66.804588,453.263184 49.436977,450.129150 32.618179,444.269226 
	C21.790327,440.496613 11.814807,434.761444 1.000000,431.000000 
	C1.000000,418.312439 1.000000,405.624878 1.000000,392.468658 
M202.872620,254.707184 
	C205.523285,265.586365 209.643814,275.704773 216.339188,284.886749 
	C231.895935,306.221161 268.337921,310.247650 288.080994,292.689117 
	C302.706390,279.681976 309.540192,263.253143 310.739532,244.026917 
	C311.045013,239.130356 311.249298,233.752991 317.840454,232.441284 
	C319.448608,232.121262 319.595795,230.610275 319.602234,229.234421 
	C319.617859,225.904770 319.883759,222.546021 319.545502,219.250656 
	C318.532654,209.382416 312.937286,202.567932 304.972443,202.488678 
	C294.639282,202.385849 284.717346,201.692093 277.217041,193.728668 
	C265.621399,202.337906 265.621399,202.340210 257.433350,202.344681 
	C241.448196,202.353424 225.462540,202.436111 209.478134,202.330078 
	C202.712875,202.285187 198.083832,205.506119 195.038559,211.175751 
	C191.684036,217.421204 193.835419,224.224960 193.524506,230.777283 
	C193.472397,231.875717 194.481750,232.396454 195.549484,232.641342 
	C199.754684,233.605835 200.972031,237.108307 201.143997,240.565750 
	C201.367630,245.061890 202.227692,249.451767 202.872620,254.707184 
M491.035767,392.509399 
	C488.816040,388.411560 485.496948,385.689423 481.271729,383.639801 
	C467.349884,376.886261 453.612793,369.751556 439.686096,363.008331 
	C433.571289,360.047638 428.618042,356.098083 426.428314,349.562958 
	C424.661713,344.290619 421.989136,342.206177 416.607513,345.038971 
	C415.535736,345.603149 413.990875,345.342224 412.664642,345.337006 
	C405.732361,345.309723 398.759888,345.906158 391.407532,343.334961 
	C389.576111,356.622192 378.757782,361.114014 368.432312,367.372559 
	C398.653717,383.093079 424.451691,401.173676 424.502411,438.771545 
	C442.166962,438.721802 478.256836,428.523499 491.929718,419.907013 
	C493.260620,419.068268 494.532806,418.186096 494.539093,416.519196 
	C494.568970,408.593018 495.838165,400.487915 491.035767,392.509399 
M121.667152,345.732697 
	C120.807915,343.161560 119.087372,343.089325 116.908363,343.991547 
	C113.612625,345.356232 110.133987,345.375122 106.622803,345.375977 
	C100.678291,345.377472 94.735992,345.550690 88.493126,343.330078 
	C86.060959,355.976837 76.770500,361.134674 66.723328,365.840820 
	C54.524929,371.554565 42.568027,377.784454 30.516075,383.809875 
	C28.144136,384.995728 26.062906,386.465820 24.237856,388.527832 
	C17.217039,396.460266 17.331795,406.078400 17.374014,415.728271 
	C17.380449,417.199280 18.001120,418.043671 19.403341,418.768341 
	C39.957523,429.390320 61.854366,435.460754 84.730865,438.297729 
	C86.394913,438.504089 87.265671,437.941864 87.524200,436.321106 
	C87.888779,434.035614 88.422539,431.764984 88.610947,429.465607 
	C89.517395,418.403290 93.560493,408.530029 100.031082,399.647552 
	C107.306122,389.660797 117.053795,382.450317 127.505676,376.169067 
	C132.834167,372.966858 138.410049,370.176361 144.651337,366.776367 
	C134.191757,362.355927 125.182098,357.444336 121.667152,345.732697 
M228.499908,184.665680 
	C232.664886,184.666061 236.888641,184.215897 240.983963,184.750183 
	C253.960876,186.443192 264.368073,183.131760 272.793274,172.299500 
	C278.278259,165.247482 286.784851,167.943924 289.202026,176.534439 
	C290.996704,182.912766 293.125702,184.562973 299.737274,184.664032 
	C304.708099,184.740021 309.694183,184.282333 314.521637,186.191620 
	C318.182129,187.639343 319.066559,185.483566 318.468964,182.389481 
	C312.632996,152.172379 288.831177,132.230286 259.564941,130.534210 
	C231.542404,128.910202 209.132202,143.565460 197.979767,169.224777 
	C195.590439,174.722107 193.713440,180.525879 194.012466,187.158997 
	C205.205536,182.873016 216.450775,185.330536 228.499908,184.665680 
M126.165443,251.334198 
	C108.439514,234.323242 83.676620,242.200073 76.193596,261.941986 
	C70.025833,278.213959 71.249527,296.057648 80.177948,312.033661 
	C85.573067,321.687378 93.498398,328.019836 105.423325,327.697174 
	C116.852341,327.387909 124.002556,320.805847 129.535065,311.736542 
	C136.223190,300.772827 135.606400,288.570831 135.753906,276.393402 
	C135.869202,266.873932 132.797852,258.867828 126.165443,251.334198 
M421.408783,324.052826 
	C430.743958,317.021790 435.990662,307.655365 437.971283,296.165985 
	C439.144470,289.360352 438.293396,282.576416 438.664673,275.794586 
	C439.110931,267.643311 436.545746,260.625275 431.485443,254.176071 
	C417.801758,236.736740 392.052765,237.932022 381.039124,258.906067 
	C372.357452,275.439056 374.476898,293.427368 382.347992,310.208374 
	C389.022400,324.438202 403.454041,332.942780 421.408783,324.052826 
M285.132812,369.684265 
	C290.136688,364.919586 292.541687,358.815430 294.239502,352.301300 
	C294.750244,350.341797 294.466858,348.822632 293.237305,347.214630 
	C288.925323,341.575470 287.407074,335.128296 287.585449,328.077545 
	C287.688477,324.004700 288.247559,319.833191 287.063934,315.909515 
	C285.353973,315.370972 284.179382,316.180786 282.977325,316.623169 
	C265.840607,322.930084 248.646835,323.259003 231.397598,317.145752 
	C225.348221,315.001770 225.213867,314.954437 225.385651,321.510284 
	C225.639099,331.182434 224.466095,340.409088 218.271317,348.337738 
	C217.318024,349.557831 217.724335,350.747498 218.073227,352.091614 
	C222.218277,368.060822 232.087646,378.447266 248.113022,382.596405 
	C260.811554,385.884247 277.562347,380.105408 285.132812,369.684265 
z"/>
<path fill="#ffffff" opacity="1.000000" stroke="none" 
	d="
M256.531342,1.000000 
	C257.115601,2.489589 257.331085,3.979109 257.332092,5.468774 
	C257.351746,34.467869 257.262238,63.467480 257.433777,92.465576 
	C257.460541,96.989914 256.174683,98.516907 251.533356,98.447960 
	C239.656158,98.271553 239.651840,98.479454 239.650574,86.549446 
	C239.648407,66.050072 239.660416,45.550690 239.639481,25.051338 
	C239.632919,18.624495 239.363708,18.361343 232.802643,18.360350 
	C162.971481,18.349764 93.140259,18.387470 23.309296,18.270924 
	C18.745434,18.263308 17.251144,19.644226 17.266075,24.265327 
	C17.407162,67.930206 17.392843,111.595833 17.276279,155.260849 
	C17.265429,159.324402 18.396206,161.167145 22.633560,160.698868 
	C24.773632,160.462357 26.962114,160.667053 29.128710,160.666916 
	C41.322788,160.666168 41.302673,160.665741 41.372108,172.629013 
	C41.381451,174.238129 40.926392,175.931000 42.267399,178.248245 
	C46.282917,174.307877 50.280834,170.675171 53.932758,166.722763 
	C57.898270,162.430954 62.357277,160.489899 68.403778,160.545639 
	C97.233765,160.811523 126.068298,160.765579 154.899323,160.562500 
	C159.781296,160.528122 161.625366,161.662766 161.473450,166.904922 
	C161.142761,178.317810 161.424118,178.340042 150.100830,178.344864 
	C124.768280,178.355667 99.435394,178.414001 74.103546,178.281631 
	C70.493156,178.262772 67.774109,179.217651 65.248665,181.798798 
	C57.207161,190.017639 49.033909,198.108765 40.845047,206.181778 
	C36.302723,210.659836 31.907148,211.231079 27.436960,208.255554 
	C24.034554,205.990753 23.930748,202.342941 23.741364,198.952850 
	C23.444315,193.635574 23.521532,188.287643 23.667059,182.958893 
	C23.762035,179.481064 22.314585,178.231461 18.905746,178.314377 
	C13.244946,178.452026 7.576643,178.281296 1.455750,178.120224 
	C1.000000,119.059647 1.000000,60.119301 1.000000,1.000000 
	C86.020813,1.000000 171.041748,1.000000 256.531342,1.000000 
z"/>
<path fill="#ffffff" opacity="1.000000" stroke="none" 
	d="
M513.000000,201.583344 
	C506.344818,202.125290 499.688538,202.379089 493.034912,202.322357 
	C489.636353,202.293396 488.199005,203.480591 488.300507,206.978439 
	C488.469574,212.803940 488.291870,218.638641 488.351227,224.468521 
	C488.392731,228.548920 486.749634,231.653732 482.996460,233.215027 
	C479.094543,234.838181 475.624969,233.760208 472.641571,230.768372 
	C464.290863,222.394043 455.820282,214.137848 447.552673,205.682800 
	C445.140656,203.216110 442.582001,202.280060 439.159760,202.293945 
	C411.839905,202.404892 384.519470,202.366394 357.199188,202.358704 
	C350.683594,202.356873 350.683563,202.330917 350.655029,195.683746 
	C350.607666,184.666840 350.607697,184.666672 361.827820,184.666550 
	C389.814423,184.666245 417.801361,184.728989 445.787323,184.597473 
	C449.944733,184.577942 453.219818,185.657776 455.919159,188.820450 
	C460.019043,193.624023 464.232819,198.330383 469.020081,202.600967 
	C471.284180,197.838043 470.694794,193.713669 470.565094,189.712341 
	C470.434601,185.686325 471.982117,184.420120 475.812561,184.610977 
	C480.465302,184.842819 485.142670,184.541977 489.801758,184.698502 
	C493.091919,184.809021 494.697601,183.784851 494.687775,180.189758 
	C494.610626,152.036789 494.607391,123.883400 494.691498,95.730476 
	C494.704529,91.385155 492.371613,90.333466 488.690155,90.349022 
	C479.861237,90.386322 471.032043,90.356430 462.202942,90.356689 
	C417.224457,90.357986 372.245941,90.356453 327.267456,90.366173 
	C320.348083,90.367668 320.351135,90.392349 320.340973,97.236450 
	C320.334290,101.734192 320.263977,106.232643 320.325775,110.729355 
	C320.360046,113.223747 319.341431,114.167191 316.793152,114.379929 
	C303.648224,115.477310 303.653137,115.542625 303.650482,102.313744 
	C303.648926,94.484154 303.903076,86.643257 303.554718,78.829178 
	C303.342926,74.077469 304.785583,72.535629 309.679443,72.564445 
	C342.829102,72.759689 375.980530,72.641090 409.131317,72.670036 
	C443.445190,72.699997 477.758972,72.782074 512.536377,72.920670 
	C513.000000,74.066673 513.000000,75.133339 512.891479,76.992485 
	C512.646240,78.933212 512.390808,80.081383 512.389954,81.229736 
	C512.363159,118.181580 512.352661,155.133438 512.382385,192.085281 
	C512.383728,193.723694 512.784973,195.361771 513.000000,197.000000 
	C513.000000,198.388885 513.000000,199.777786 513.000000,201.583344 
z"/>
<path fill="#ffffff" opacity="1.000000" stroke="none" 
	d="
M342.468262,513.000000 
	C343.250793,509.430969 342.591400,505.736877 342.623779,502.105591 
	C342.724640,490.790344 342.733734,479.473267 342.636932,468.158051 
	C342.610748,465.092072 343.467316,463.569214 346.848907,463.636810 
	C363.468811,463.968994 359.937042,461.373993 360.318665,476.311462 
	C360.624329,488.278015 359.873230,500.258423 360.864197,512.610107 
	C354.978851,513.000000 348.957703,513.000000 342.468262,513.000000 
z"/>
<path fill="#ffffff" opacity="1.000000" stroke="none" 
	d="
M151.467941,513.000000 
	C152.256363,509.098511 151.580185,505.082367 151.617889,501.123871 
	C151.722275,490.160553 151.753922,479.194366 151.605377,468.232117 
	C151.558289,464.757141 152.845001,463.695648 156.252762,463.608521 
	C169.351379,463.273621 169.364243,463.168365 169.344009,476.206818 
	C169.325439,488.166443 169.268402,500.126038 169.114166,512.542847 
	C163.311966,513.000000 157.623917,513.000000 151.467941,513.000000 
z"/>
<path fill="#ffffff" opacity="1.000000" stroke="none" 
	d="
M97.000092,48.662262 
	C132.658981,48.663132 167.818420,48.759216 202.976151,48.558681 
	C208.007675,48.529984 209.599930,49.924511 209.463425,55.015156 
	C209.160355,66.318054 209.416855,66.344765 197.998016,66.348404 
	C150.175262,66.363625 102.352516,66.369804 54.529766,66.368599 
	C47.674156,66.368431 47.589180,66.340530 47.658772,59.545372 
	C47.789066,46.823215 46.169449,48.802761 58.508892,48.690563 
	C71.171661,48.575420 83.836281,48.663414 97.000092,48.662262 
z"/>
<path fill="#ffffff" opacity="1.000000" stroke="none" 
	d="
M59.019562,80.657883 
	C107.181984,80.659889 154.846634,80.660126 202.511292,80.666344 
	C209.332474,80.667236 209.332458,80.680618 209.345306,87.527840 
	C209.365570,98.326042 209.365601,98.355362 198.469940,98.358856 
	C150.471985,98.374245 102.474037,98.374565 54.476086,98.371201 
	C47.671253,98.370728 47.588692,98.346504 47.666924,91.494583 
	C47.810390,78.928734 45.950241,80.877235 59.019562,80.657883 
z"/>
<path fill="#ffffff" opacity="1.000000" stroke="none" 
	d="
M112.000092,112.664185 
	C126.998955,112.664330 141.499496,112.786674 155.995621,112.587906 
	C160.130371,112.531204 161.438538,113.888611 161.432297,118.014687 
	C161.413635,130.332001 161.569809,130.349930 149.490555,130.353943 
	C117.659737,130.364532 85.828178,130.251007 53.998844,130.468689 
	C48.941700,130.503265 47.403286,129.069870 47.535950,124.007561 
	C47.833103,112.668510 47.580635,112.662048 59.004250,112.662552 
	C76.502861,112.663307 94.001472,112.663826 112.000092,112.664185 
z"/>
<path fill="#ffffff" opacity="1.000000" stroke="none" 
	d="
M430.661804,136.041580 
	C430.735779,128.691376 430.736694,128.610931 437.469360,128.686966 
	C450.039917,128.828918 448.183563,126.941612 448.317230,139.466660 
	C448.390381,146.319687 448.307343,146.320602 441.551666,146.344421 
	C441.218811,146.345596 440.885925,146.349457 440.553131,146.345413 
	C429.337524,146.208954 430.805450,147.581390 430.661804,136.041580 
z"/>
<path fill="#ffffff" opacity="1.000000" stroke="none" 
	d="
M401.202087,128.776367 
	C405.344788,128.711777 409.009369,128.748764 412.671692,128.674469 
	C415.136261,128.624481 416.459991,129.591263 416.305817,132.185303 
	C416.276245,132.682419 416.319336,133.183990 416.331696,133.683441 
	C416.661438,146.989594 415.250031,148.215439 401.838165,146.292267 
	C400.693390,146.128098 399.127167,146.191650 399.049194,144.759644 
	C398.765076,139.539032 397.581543,134.245148 399.804260,129.149109 
	C399.892120,128.947662 400.407043,128.932526 401.202087,128.776367 
z"/>
<path fill="#ffffff" opacity="1.000000" stroke="none" 
	d="
M384.334991,136.038757 
	C384.171204,147.811966 385.633392,146.219254 374.491150,146.331985 
	C366.667969,146.411133 366.608795,146.340988 366.676941,138.466171 
	C366.772736,127.392677 365.301422,128.773163 376.557281,128.679153 
	C384.267181,128.614761 384.267609,128.665604 384.334991,136.038757 
z"/>
</svg>