<svg version="1.1" id="Layer_1" xmlns="http://www.w3.org/2000/svg" xmlns:xlink="http://www.w3.org/1999/xlink" x="0px" y="0px"
	 width="100%" viewBox="0 0 373 135" enable-background="new 0 0 373 135" xml:space="preserve">
<path fill="#FCFDFD" opacity="1.000000" stroke="none" 
	d="
M288.000000,136.000000 
	C193.333359,136.000000 99.166679,135.976151 5.000189,136.095688 
	C1.576187,136.100037 0.889673,135.425720 0.901790,131.999725 
	C1.052097,89.500267 1.039006,46.999977 0.916371,4.500341 
	C0.907763,1.517341 1.517737,0.916334 4.499962,0.918660 
	C126.499863,1.013802 248.499863,1.013787 370.499756,0.918724 
	C373.481171,0.916401 374.092255,1.516250 374.083679,4.500050 
	C373.961121,47.166359 373.961182,89.833244 374.083618,132.499542 
	C374.092163,135.482193 373.485168,136.101227 370.499756,136.085358 
	C343.167114,135.940216 315.833405,136.000000 288.000000,136.000000 
z"/>
<path fill="#0B0B0B" opacity="1.000000" stroke="none" 
	d="
M263.971069,77.876740 
	C260.277100,90.113411 251.843704,97.656212 239.941010,100.663940 
	C227.984970,103.685143 217.527924,99.733658 209.203674,90.816498 
	C193.107498,73.573845 192.554230,44.186935 207.767059,26.201084 
	C222.155548,9.189818 245.990280,9.825525 259.267517,27.716862 
	C267.907684,39.359650 270.685730,52.475605 268.597321,66.922424 
	C268.351715,71.478134 265.716095,73.945953 259.929199,75.036148 
	C258.602539,70.369766 260.895874,66.388138 261.361786,62.148312 
	C262.715424,49.829926 257.026520,30.760849 244.003708,24.430395 
	C234.407181,19.765476 223.586594,21.083939 215.907486,28.529112 
	C201.401886,42.592873 200.494339,69.387833 214.009995,84.553078 
	C225.146194,97.048439 240.219864,96.826035 252.810211,83.682922 
	C256.141815,80.616180 259.022583,77.465927 263.971069,77.876740 
z"/>
<path fill="#619FD6" opacity="1.000000" stroke="none" 
	d="
M264.203979,78.105721 
	C260.521973,78.916245 257.533356,80.957245 254.612946,83.749573 
	C249.026459,87.136040 243.119247,88.857124 237.250443,90.667015 
	C234.649246,91.469208 231.992172,91.575745 229.376465,90.806358 
	C227.391434,90.222488 225.583740,89.198311 225.332153,86.892952 
	C225.052460,84.330238 226.794495,82.978012 228.836441,81.989288 
	C230.513763,81.177101 232.407684,80.516869 234.152267,81.142036 
	C240.670334,83.477783 246.177887,80.564964 251.814896,78.100044 
	C254.245132,77.037354 256.406616,75.382019 259.454956,74.893250 
	C263.484283,73.377808 266.331360,70.811012 268.865387,67.433273 
	C272.805756,64.375916 271.433624,60.005581 271.521149,56.585094 
	C271.944397,40.046841 265.715759,26.279797 252.039658,16.642441 
	C236.544724,5.723341 216.178009,9.737241 204.338745,25.563311 
	C195.281647,37.670326 192.201614,51.228863 194.521622,66.096161 
	C194.647049,66.899910 194.687866,67.717979 194.738724,68.531219 
	C194.747803,68.676544 194.612457,68.830917 194.485611,69.108429 
	C190.565292,69.014565 188.492584,66.216614 187.294617,63.186852 
	C184.710556,56.651482 184.602371,50.131710 189.734192,44.534065 
	C191.165909,42.972385 191.726974,41.147728 192.405029,39.272774 
	C196.104614,29.042500 201.709427,20.201324 210.706985,13.712888 
	C227.600357,1.530514 249.274857,4.414855 263.033142,20.793499 
	C267.020782,25.540628 270.320374,30.686377 272.473083,36.550789 
	C273.840698,40.276386 275.446655,43.857273 277.557495,47.303516 
	C281.550415,53.822472 280.493225,61.430630 275.257935,67.123314 
	C272.220428,70.426193 268.952454,73.517113 265.495087,76.838715 
	C264.892548,77.183182 264.598541,77.412277 264.189423,77.907082 
	C264.061066,78.155663 264.154907,78.060265 264.203979,78.105721 
z"/>
<path fill="#0F0F0F" opacity="1.000000" stroke="none" 
	d="
M351.146790,105.735428 
	C345.118317,106.895851 340.150269,105.734200 336.314941,101.231117 
	C334.842712,99.502586 333.732544,97.469505 335.854492,95.521545 
	C337.822327,93.715080 339.511658,94.903336 340.981659,96.505577 
	C343.541229,99.295387 346.500336,101.030014 350.248383,99.045769 
	C354.262451,96.920723 354.819458,93.295486 353.944977,88.905235 
	C349.381653,90.823654 344.819580,91.364990 340.483185,88.906296 
	C335.603271,86.139458 333.198486,81.785698 333.198242,76.145340 
	C333.197998,69.985458 333.196686,63.825584 333.196411,57.665707 
	C333.196320,55.277161 333.100342,52.624847 336.405731,52.543392 
	C339.698975,52.462231 339.832733,55.051876 339.838837,57.483395 
	C339.853912,63.476757 339.791473,69.470818 339.862366,75.463379 
	C339.927460,80.964218 342.418701,83.933647 346.794006,83.946907 
	C351.579590,83.961418 354.218658,81.024620 354.285400,75.421310 
	C354.352844,69.761681 354.257843,64.100143 354.320679,58.440411 
	C354.349213,55.866756 353.727875,52.509541 357.774384,52.590385 
	C361.418884,52.663200 360.949127,55.764648 360.954773,58.218140 
	C360.979645,69.039497 360.881012,79.861832 360.995270,90.682037 
	C361.070374,97.790451 358.162415,102.827789 351.146790,105.735428 
z"/>
<path fill="#0B0B0B" opacity="1.000000" stroke="none" 
	d="
M159.089020,83.464752 
	C162.227921,82.728210 164.108780,80.936691 165.769272,78.774139 
	C167.082779,77.063499 168.462006,74.966362 171.011185,76.854836 
	C173.664658,78.820572 172.273834,80.938187 170.876999,82.894310 
	C165.606567,90.275002 154.286880,92.712410 146.289932,88.219048 
	C137.551636,83.309120 133.952972,72.592339 138.058105,63.704731 
	C142.170685,54.801010 152.223373,50.371082 161.353561,53.507660 
	C162.909348,54.042126 164.442703,54.751270 165.842026,55.613911 
	C174.305466,60.831387 174.275421,64.508865 165.818176,69.343109 
	C159.635605,72.877144 153.469772,76.440498 146.615829,80.382233 
	C150.490036,83.577248 154.327072,84.493698 159.089020,83.464752 
z"/>
<path fill="#090909" opacity="1.000000" stroke="none" 
	d="
M87.425514,62.863018 
	C84.753326,58.418922 81.243881,57.996780 77.173080,60.355427 
	C75.172279,61.514706 72.997948,63.440174 71.209808,60.527676 
	C69.432091,57.632153 71.852943,55.827068 73.889847,54.452217 
	C82.031555,48.956814 94.154526,54.733940 94.918037,64.741447 
	C95.472832,72.013329 95.193909,79.359093 95.068413,86.668167 
	C95.007782,90.199387 92.936356,91.583267 89.770699,89.795921 
	C88.347870,88.992569 87.506363,89.306671 86.192162,89.694038 
	C79.521332,91.660278 73.946678,89.920929 70.195671,84.920059 
	C66.856125,80.467758 66.631264,74.179047 69.643547,69.479012 
	C73.152733,64.003662 78.474030,62.089878 86.105659,63.748215 
	C86.842102,63.591511 87.142082,63.377098 87.425514,62.863018 
z"/>
<path fill="#131313" opacity="1.000000" stroke="none" 
	d="
M309.293762,88.746353 
	C304.830353,91.316818 303.324402,90.638214 303.207458,86.094345 
	C303.049072,79.938721 303.216095,73.775475 303.143951,67.616661 
	C303.078522,62.027660 300.343597,58.944065 295.708496,59.028873 
	C291.362915,59.108383 288.702209,62.170326 288.609772,67.511673 
	C288.506104,73.503067 288.564941,79.497681 288.591278,85.490723 
	C288.602295,87.999443 288.288177,90.521057 285.155945,90.494301 
	C281.846161,90.466049 282.012054,87.697250 282.009949,85.335052 
	C282.001648,76.012352 281.946259,66.689079 282.032654,57.367176 
	C282.076355,52.653652 283.492554,51.567608 287.740234,53.510925 
	C289.605347,54.364235 290.540100,53.328491 291.845673,52.993385 
	C300.717834,50.716167 309.124115,56.327648 309.598114,65.456322 
	C309.993927,73.078354 309.552094,80.743881 309.293762,88.746353 
z"/>
<path fill="#0C0C0C" opacity="1.000000" stroke="none" 
	d="
M100.291748,52.619473 
	C103.205475,52.495876 103.829857,54.591244 104.708778,56.327534 
	C108.530945,63.878113 112.311142,71.449936 116.514450,79.826881 
	C119.408073,74.201981 122.012566,69.176514 124.580963,64.132660 
	C126.162041,61.027737 127.639221,57.869186 129.255859,54.783333 
	C130.332550,52.728157 132.070938,51.852108 134.198441,53.101501 
	C136.155823,54.251007 135.974442,56.004238 135.036987,57.859272 
	C130.021317,67.784393 125.127205,77.771980 120.012695,87.645569 
	C117.973343,91.582558 115.191261,91.569160 113.158127,87.639267 
	C108.128143,77.916710 103.286980,68.096443 98.371010,58.314911 
	C97.188072,55.961166 96.858047,53.843681 100.291748,52.619473 
z"/>
<path fill="#030303" opacity="1.000000" stroke="none" 
	d="
M47.715069,38.300713 
	C48.607670,41.662342 47.361721,43.117664 44.354233,43.157921 
	C43.855572,43.164597 43.356724,43.160011 42.858147,43.169922 
	C32.308758,43.379574 32.308769,43.379833 32.308762,53.795662 
	C32.308758,63.936966 32.346333,74.078506 32.282089,84.219406 
	C32.266190,86.729698 33.144466,90.233162 29.184168,90.374847 
	C25.042765,90.523018 25.951462,86.952988 25.938702,84.466614 
	C25.875559,72.164368 25.788292,59.859646 25.988922,47.560349 
	C26.044476,44.154766 25.261026,42.720814 21.644814,43.107098 
	C18.852175,43.405407 15.998150,43.191189 13.174037,43.111732 
	C11.162148,43.055126 10.115748,41.805527 10.161880,39.894459 
	C10.201172,38.266788 11.059430,36.917774 12.879064,36.937263 
	C24.164772,37.058113 35.459126,36.382996 46.734493,37.293369 
	C46.998520,37.314690 47.232788,37.704468 47.715069,38.300713 
z"/>
<path fill="#070707" opacity="1.000000" stroke="none" 
	d="
M322.092651,79.360123 
	C322.533661,82.506859 324.177795,83.768799 326.851135,84.022270 
	C329.027100,84.228577 330.228729,85.561279 329.874817,87.751122 
	C329.464844,90.287636 327.502716,90.669914 325.331635,90.473396 
	C320.317200,90.019524 315.883881,85.492538 315.793549,79.966766 
	C315.581116,66.973045 315.678040,53.974178 315.664154,40.977371 
	C315.661865,38.845379 315.935913,36.842339 318.786041,36.895863 
	C321.851288,36.953426 322.067322,39.120426 322.067322,41.428562 
	C322.067230,53.926411 322.070190,66.424263 322.092651,79.360123 
z"/>
<path fill="#060606" opacity="1.000000" stroke="none" 
	d="
M176.757996,62.999664 
	C176.758041,55.844433 176.696716,49.188263 176.791672,42.534317 
	C176.824478,40.236004 175.843353,37.005154 179.802887,36.948586 
	C183.620621,36.894043 183.100830,39.956718 183.108566,42.384583 
	C183.145142,53.864857 183.191910,65.345917 183.087921,76.825371 
	C183.052551,80.728851 183.594498,83.759789 188.417831,84.123825 
	C190.290283,84.265144 191.227219,85.819473 190.924393,87.776085 
	C190.565735,90.093460 188.815765,90.563217 186.862396,90.538597 
	C181.862122,90.475578 177.002640,85.496284 176.820206,79.969940 
	C176.639130,74.485123 176.766113,68.990128 176.757996,62.999664 
z"/>
<path fill="#050505" opacity="1.000000" stroke="none" 
	d="
M61.394424,54.515049 
	C62.579811,55.724270 63.558437,56.628883 64.343903,57.678101 
	C65.500275,59.222767 65.433418,60.759979 63.886669,62.072399 
	C62.512291,63.238567 61.084358,63.119522 59.857029,61.943104 
	C57.897560,60.064926 55.957203,57.945652 52.961758,59.451202 
	C49.619202,61.131207 50.246082,64.430702 50.242020,67.389488 
	C50.233578,73.539665 50.196526,79.690285 50.259529,85.839821 
	C50.284252,88.252945 49.836132,90.363136 46.992851,90.437744 
	C43.922958,90.518311 43.846954,88.161926 43.850815,85.879280 
	C43.867111,76.238480 43.884438,66.597519 43.843567,56.956867 
	C43.829136,53.552197 44.962517,52.129353 48.701050,52.897449 
	C52.760822,53.731544 57.210747,51.457844 61.394424,54.515049 
z"/>
<path fill="#959596" opacity="1.000000" stroke="none" 
	d="
M97.158493,117.733238 
	C97.172943,115.548248 97.172943,113.774391 97.172943,112.000542 
	C100.702019,114.726074 99.939056,118.045921 98.569214,121.056999 
	C97.690506,122.988472 95.567894,123.562904 93.382401,122.663933 
	C90.154198,121.336060 89.377922,117.282631 91.337616,110.830971 
	C93.810799,112.868362 92.448112,115.492294 92.810249,117.659698 
	C93.035690,119.008965 93.059151,120.482170 94.758202,120.685486 
	C96.509445,120.895058 96.956871,119.568878 97.158493,117.733238 
z"/>
<path fill="#F1F1F1" opacity="1.000000" stroke="none" 
	d="
M43.735992,112.799133 
	C46.619656,114.460587 46.178799,116.659691 45.361511,119.289398 
	C44.083900,119.753151 43.399269,120.569664 42.545410,121.057335 
	C40.286980,122.347198 37.986610,122.462830 36.095314,120.628273 
	C34.640694,119.217300 33.894321,117.345215 34.806873,115.186005 
	C35.883430,112.638725 37.890148,111.888184 40.449223,112.060516 
	C41.452267,112.128067 42.393986,112.515488 43.735992,112.799133 
z"/>
<path fill="#868687" opacity="1.000000" stroke="none" 
	d="
M135.473145,118.845894 
	C136.514587,120.236206 137.405746,121.253647 138.969269,120.831810 
	C140.517883,120.413986 140.725342,119.061905 140.845383,117.672699 
	C141.027237,115.568253 140.314758,113.368034 141.452545,111.308319 
	C143.268311,113.897614 143.612167,123.868263 142.002640,126.116264 
	C140.189743,128.648315 138.008362,128.581039 135.462448,125.916443 
	C136.326401,124.675690 137.232391,125.812836 138.114182,125.878456 
	C139.486465,125.980598 140.526230,125.379990 140.592087,124.055550 
	C140.670288,122.482857 139.261703,123.060455 138.391754,122.971817 
	C136.168900,122.745346 134.715103,121.627686 134.235718,119.111748 
	C134.577301,118.766167 134.839935,118.735298 135.473145,118.845894 
z"/>
<path fill="#7D7D7E" opacity="1.000000" stroke="none" 
	d="
M43.793243,112.782822 
	C42.440792,112.977989 40.800152,112.851280 39.168240,112.923080 
	C37.073677,113.015236 35.898869,114.321899 35.448917,116.269516 
	C35.077675,117.876472 35.743675,119.211113 36.978989,120.174408 
	C38.595840,121.435211 40.269470,121.211548 42.022388,120.251259 
	C42.926685,119.755859 43.188793,117.362473 45.061096,119.392014 
	C43.436405,121.842186 41.458214,123.499611 38.434349,122.769508 
	C36.048985,122.193565 34.257915,120.946663 33.664822,118.354950 
	C33.086422,115.827461 33.859539,113.785385 35.798958,112.206345 
	C38.429417,110.064690 40.997101,111.089905 43.793243,112.782822 
z"/>
<path fill="#828283" opacity="1.000000" stroke="none" 
	d="
M167.547424,120.722092 
	C164.810806,123.761017 162.606720,123.242531 161.850784,119.587379 
	C161.332535,117.081581 163.192474,113.861755 159.677231,112.242508 
	C160.852188,110.348717 162.947006,108.874802 162.383408,105.975502 
	C162.898773,108.960320 166.734360,110.815727 164.092102,114.623558 
	C163.368027,115.667061 161.353043,120.975586 167.547424,120.722092 
z"/>
<path fill="#6A6A6C" opacity="1.000000" stroke="none" 
	d="
M170.261993,116.135040 
	C170.569183,115.345253 171.084808,114.812531 171.600418,114.279800 
	C170.183105,113.417343 169.636063,112.340019 171.391953,111.415337 
	C172.949707,110.595001 174.527527,110.831253 175.872284,112.192261 
	C178.668869,115.022644 177.049561,118.470924 176.654922,121.426949 
	C176.505936,122.542908 173.052460,123.790459 170.398071,122.157761 
	C169.714035,119.361282 173.106674,120.524147 173.479126,118.581604 
	C173.127869,116.985672 171.335999,117.312553 170.261993,116.135040 
z"/>
<path fill="#767778" opacity="1.000000" stroke="none" 
	d="
M202.997833,112.602509 
	C202.172974,113.278534 200.778168,112.590080 200.439636,113.780846 
	C200.149353,114.801956 200.980667,115.789185 202.052017,115.856117 
	C204.560257,116.012787 204.873474,117.878273 205.053635,119.645065 
	C205.203995,121.119576 204.109116,122.127296 202.784180,122.596230 
	C200.837418,123.285255 199.226257,122.825615 198.234131,120.849068 
	C198.484985,120.576927 198.671432,120.190163 198.881363,120.176979 
	C200.203476,120.093948 201.864975,122.081245 202.777954,120.021042 
	C203.777222,117.766060 201.413589,117.579620 200.129089,116.723351 
	C198.671005,115.751366 197.470001,114.359276 198.720749,112.574654 
	C199.840225,110.977310 201.373367,110.023552 202.997833,112.602509 
z"/>
<path fill="#7D7D7E" opacity="1.000000" stroke="none" 
	d="
M74.960045,122.582909 
	C74.011459,128.327148 72.911415,128.991058 68.885391,126.207573 
	C74.284393,126.348068 72.838341,122.627289 72.914375,119.818054 
	C72.990746,116.996826 72.931168,114.171921 73.619720,111.351471 
	C75.615334,114.838249 74.656174,118.553185 74.960045,122.582909 
z"/>
<path fill="#68696A" opacity="1.000000" stroke="none" 
	d="
M191.577377,121.133087 
	C190.745987,116.111443 187.947250,111.243355 191.190323,106.578773 
	C195.902969,110.555695 190.936874,115.563835 192.657898,120.359764 
	C192.580704,120.927734 192.310684,121.117020 191.577377,121.133087 
z"/>
<path fill="#707072" opacity="1.000000" stroke="none" 
	d="
M25.235569,111.157341 
	C27.300383,110.283195 29.753761,113.680878 31.972700,109.937271 
	C29.190670,113.886246 29.589228,118.268341 28.702223,122.411682 
	C27.075617,118.799568 28.833925,114.342361 25.235569,111.157341 
z"/>
<path fill="#727374" opacity="1.000000" stroke="none" 
	d="
M226.178482,114.726181 
	C225.343567,116.134567 224.168182,117.502129 227.118073,117.251755 
	C227.955338,117.075661 228.366714,117.299812 228.412659,118.122299 
	C227.584473,120.877205 227.584473,120.877205 231.635223,121.221382 
	C228.781265,123.536133 227.616882,123.653633 225.395676,121.311134 
	C222.964035,118.746719 222.099472,115.961807 225.617569,113.176643 
	C226.352478,113.489166 226.499252,113.932587 226.178482,114.726181 
z"/>
<path fill="#F1F1F1" opacity="1.000000" stroke="none" 
	d="
M169.991135,116.242188 
	C170.873581,115.959839 171.695358,116.124069 172.513245,116.106491 
	C174.237610,116.069420 175.601532,116.736130 175.652161,118.499870 
	C175.713943,120.651939 174.129425,121.136879 172.248016,121.030571 
	C171.609116,120.994476 170.957764,121.179024 170.185760,121.622368 
	C169.549408,121.725548 169.039368,121.469116 168.263458,121.106003 
	C167.997589,120.999313 167.810989,120.750465 167.814117,120.595711 
	C167.744675,118.735260 169.459167,118.013596 169.991135,116.242188 
z"/>
<path fill="#7D7D7E" opacity="1.000000" stroke="none" 
	d="
M182.134186,116.329155 
	C182.131760,118.686134 182.131760,120.611862 182.131760,122.537598 
	C181.652817,122.557144 181.173874,122.576683 180.694931,122.596230 
	C179.812057,119.013847 179.538864,115.212646 180.826859,111.699547 
	C181.289886,110.436615 183.966110,110.586349 185.980331,112.114906 
	C184.606262,113.402916 181.443222,113.013931 182.134186,116.329155 
z"/>
<path fill="#79797A" opacity="1.000000" stroke="none" 
	d="
M237.175751,122.079338 
	C236.959778,119.558113 236.823853,117.400925 236.940445,115.257469 
	C237.014786,113.890869 236.121323,111.894020 237.869232,111.314240 
	C239.611115,110.736488 241.813843,110.407959 243.369919,113.336472 
	C238.882446,112.325653 238.610016,114.740410 238.758453,117.936745 
	C238.827164,119.416618 240.035721,121.662231 237.175751,122.079338 
z"/>
<path fill="#7D7E80" opacity="1.000000" stroke="none" 
	d="
M102.370430,111.655487 
	C104.036491,111.199997 105.508759,110.472412 107.178719,112.017990 
	C101.342522,113.789963 105.580399,119.390823 102.613899,123.389595 
	C101.571930,119.045555 101.996895,115.516251 102.370430,111.655487 
z"/>
<path fill="#828283" opacity="1.000000" stroke="none" 
	d="
M78.368286,120.050186 
	C75.948112,116.972565 76.894386,114.353935 79.339752,112.188660 
	C81.397736,110.366394 83.624634,110.513550 86.737312,112.506577 
	C82.531654,113.176659 78.382332,112.721962 79.093567,118.382446 
	C79.391068,119.317764 79.269516,119.757576 78.368286,120.050186 
z"/>
<path fill="#767778" opacity="1.000000" stroke="none" 
	d="
M124.289413,118.967667 
	C124.887978,122.713287 128.196838,119.743881 129.844162,121.635063 
	C127.653214,123.952095 125.149239,122.897446 123.309624,121.634010 
	C120.975143,120.030701 120.421066,117.398453 121.860901,114.330795 
	C122.527321,113.853348 122.934685,113.941628 123.493210,114.531403 
	C124.061363,115.629730 124.233482,116.510681 124.509918,117.705856 
	C124.536423,118.254684 124.507790,118.474579 124.289413,118.967667 
z"/>
<path fill="#606162" opacity="1.000000" stroke="none" 
	d="
M111.387100,122.129684 
	C111.088524,120.832336 110.955917,119.700363 110.946846,118.567406 
	C110.893219,111.863693 110.902863,111.863617 117.962189,112.459801 
	C118.191246,113.044762 118.145058,113.304848 117.703636,113.593269 
	C114.256851,112.150841 112.707741,113.155487 112.602776,116.495110 
	C112.552032,118.109558 112.538460,119.725174 112.305084,121.689209 
	C111.938126,122.123642 111.774139,122.209122 111.387100,122.129684 
z"/>
<path fill="#767778" opacity="1.000000" stroke="none" 
	d="
M156.454285,118.028313 
	C154.909714,117.402885 153.683548,116.944290 152.616516,116.243423 
	C151.203613,115.315353 150.738708,113.900909 151.809570,112.493652 
	C152.989548,110.942993 154.442398,109.999504 155.993179,112.606270 
	C155.157745,113.134178 153.514862,113.284088 153.500931,113.527374 
	C153.374603,115.731178 155.888199,115.007736 156.940063,116.509125 
	C157.469772,117.319016 157.378632,117.750244 156.454285,118.028313 
z"/>
<path fill="#828283" opacity="1.000000" stroke="none" 
	d="
M156.074799,118.340096 
	C156.338608,117.741302 156.612183,117.513290 157.001785,117.039551 
	C158.941391,118.835281 158.557190,120.845207 156.519974,122.250305 
	C154.504196,123.640640 152.575592,123.163460 151.127686,120.787231 
	C152.719513,119.511803 155.928757,122.555473 156.074799,118.340096 
z"/>
<path fill="#7D7E80" opacity="1.000000" stroke="none" 
	d="
M219.709351,112.121422 
	C222.318527,115.450996 222.530579,117.763542 220.749390,122.972771 
	C218.972046,119.827751 220.834061,116.471931 219.041992,113.437195 
	C218.929916,112.714012 219.135757,112.418419 219.709351,112.121422 
z"/>
<path fill="#79797A" opacity="1.000000" stroke="none" 
	d="
M228.535736,118.335693 
	C228.054321,118.125961 227.912201,117.810570 227.579681,117.318161 
	C228.084793,115.310753 233.313263,116.239983 230.392487,112.208038 
	C231.554886,111.697906 232.623459,111.800613 233.581772,112.682137 
	C234.619370,113.636597 234.874588,114.660843 233.566849,115.513443 
	C232.055115,116.499046 230.443359,117.331230 228.535736,118.335693 
z"/>
<path fill="#79797A" opacity="1.000000" stroke="none" 
	d="
M124.457367,119.163445 
	C124.078766,119.023003 124.057846,118.805130 124.011185,118.259956 
	C123.897530,115.320770 126.707893,115.323540 128.334335,113.387932 
	C130.211533,111.414162 131.175751,112.518036 131.850006,113.577545 
	C132.540985,114.663322 131.589249,115.389992 130.755966,115.869545 
	C128.804840,116.992416 126.798836,118.019913 124.457367,119.163445 
z"/>
<path fill="#6A6A6C" opacity="1.000000" stroke="none" 
	d="
M61.856125,113.008499 
	C58.692204,115.721924 61.492466,119.513779 59.399456,122.708351 
	C58.095310,119.326004 58.930878,116.105644 58.747009,112.978844 
	C58.681652,111.867371 59.148388,111.090553 60.477013,111.166206 
	C61.563488,111.228081 62.943878,110.550148 63.495514,111.996841 
	C63.850586,112.928024 62.785957,112.761230 61.856125,113.008499 
z"/>
<path fill="#7D7D7E" opacity="1.000000" stroke="none" 
	d="
M246.840424,120.105911 
	C250.023819,121.826378 252.638611,120.987411 255.380081,119.512550 
	C253.469711,122.595169 251.022095,123.981598 247.119507,121.588394 
	C246.776962,121.019920 246.646866,120.734077 246.840424,120.105911 
z"/>
<path fill="#888889" opacity="1.000000" stroke="none" 
	d="
M78.123520,120.342178 
	C78.276161,119.772232 78.574196,119.533798 78.997726,119.032829 
	C81.101166,121.489792 83.763245,121.221077 86.845871,119.920624 
	C84.567848,123.945251 82.989357,123.984627 78.123520,120.342178 
z"/>
<path fill="#79797A" opacity="1.000000" stroke="none" 
	d="
M53.411629,120.711365 
	C54.726620,117.492577 53.053612,114.196136 54.965042,110.505035 
	C56.235600,114.511696 56.626381,117.649567 54.486145,120.978752 
	C53.886288,121.117828 53.648129,121.094101 53.411629,120.711365 
z"/>
<path fill="#828283" opacity="1.000000" stroke="none" 
	d="
M46.989922,115.118752 
	C47.151745,113.522583 46.585041,112.118454 48.380920,111.005081 
	C49.515720,114.165009 49.033554,116.947227 48.675629,120.742035 
	C46.575954,118.676949 47.140919,117.014420 46.989922,115.118752 
z"/>
<path fill="#868687" opacity="1.000000" stroke="none" 
	d="
M212.968735,116.865295 
	C213.178619,115.790520 213.194580,114.934311 213.611389,114.633507 
	C214.217880,114.195808 214.849442,114.647415 214.874222,115.451660 
	C214.946350,117.795250 215.460159,120.189018 214.284805,122.943237 
	C212.262589,121.092995 213.240448,119.056419 212.968735,116.865295 
z"/>
<path fill="#767778" opacity="1.000000" stroke="none" 
	d="
M219.705109,111.796341 
	C219.759872,112.324600 219.539810,112.594193 219.078857,112.974808 
	C217.877747,113.192986 216.611191,112.946861 216.010010,113.468117 
	C213.327606,115.793861 213.177338,113.975609 213.120377,111.441956 
	C213.511765,110.668030 213.928314,110.505211 214.705139,110.785446 
	C216.454941,111.279480 218.051926,110.493752 219.705109,111.796341 
z"/>
<path fill="#7F8081" opacity="1.000000" stroke="none" 
	d="
M123.415726,115.235832 
	C122.896362,114.869408 122.711739,114.576248 122.299362,114.152946 
	C123.557449,111.143105 125.864265,110.342323 129.136124,111.625099 
	C128.952545,112.085014 128.655029,112.397095 128.285889,113.112000 
	C126.767418,114.309280 125.324402,114.957520 123.415726,115.235832 
z"/>
<path fill="#888889" opacity="1.000000" stroke="none" 
	d="
M255.658661,113.927452 
	C254.838699,116.013550 253.402878,116.815125 251.347961,116.556351 
	C252.778305,115.581932 252.020248,111.689819 255.658661,113.927452 
z"/>
<path fill="#6D6E6F" opacity="1.000000" stroke="none" 
	d="
M247.329697,119.515686 
	C247.120117,120.020393 247.076172,120.277184 246.969635,120.919868 
	C244.532944,119.796463 244.469467,117.616348 245.099060,115.080070 
	C246.911163,114.826050 245.839676,119.011673 248.575348,117.313522 
	C249.204468,116.922981 249.763412,117.891281 249.238510,118.524239 
	C248.879959,118.956604 248.091568,119.032494 247.329697,119.515686 
z"/>
<path fill="#888889" opacity="1.000000" stroke="none" 
	d="
M191.219742,121.293411 
	C191.404373,120.931038 191.694656,120.902199 192.417831,120.805908 
	C193.963547,121.478172 195.454376,119.592758 196.368805,121.227402 
	C196.492752,121.448975 196.072067,122.198311 195.723068,122.423439 
	C194.050049,123.502609 192.583481,123.046936 191.219742,121.293411 
z"/>
<path fill="#606162" opacity="1.000000" stroke="none" 
	d="
M118.001434,112.989746 
	C120.272049,115.933098 119.361885,119.179184 118.766487,123.073723 
	C117.063095,119.886108 118.376945,117.006844 117.441071,114.004120 
	C117.460754,113.479332 117.613098,113.337074 118.001434,112.989746 
z"/>
<path fill="#868687" opacity="1.000000" stroke="none" 
	d="
M215.000153,110.593208 
	C214.580200,111.008789 214.175934,111.011177 213.468536,111.018585 
	C212.946548,109.416748 212.588455,107.797501 213.672943,106.102753 
	C215.781723,106.959496 214.735626,108.814034 215.000153,110.593208 
z"/>
<path fill="#6D6E6F" opacity="1.000000" stroke="none" 
	d="
M248.175415,113.553505 
	C247.213776,114.060143 246.114609,114.885429 246.119995,113.646851 
	C246.126465,112.157860 247.620895,111.443817 248.941406,112.071289 
	C250.595276,112.857147 248.780624,112.930603 248.175415,113.553505 
z"/>
<path fill="#79797A" opacity="1.000000" stroke="none" 
	d="
M53.952450,120.939041 
	C52.312454,122.800232 50.317257,122.087273 48.031311,121.823799 
	C49.538948,120.038200 51.359932,121.481537 53.064507,120.516708 
	C53.535675,120.480408 53.658066,120.608459 53.952450,120.939041 
z"/>
<path fill="#ECECEC" opacity="1.000000" stroke="none" 
	d="
M226.214615,114.869179 
	C225.918686,114.584915 225.914413,114.169739 225.934982,113.444382 
	C226.194138,112.627716 226.428452,112.121254 226.662750,111.614784 
	C226.993835,111.905563 227.476135,112.133575 227.627762,112.498848 
	C228.088104,113.607826 227.249435,114.171715 226.214615,114.869179 
z"/>
<path fill="#7F8081" opacity="1.000000" stroke="none" 
	d="
M135.688065,111.707733 
	C135.834641,112.669266 135.953674,113.432678 135.151886,113.550720 
	C134.870483,113.592148 134.276840,113.107735 134.222717,112.794792 
	C134.068878,111.905212 134.404419,111.238983 135.688065,111.707733 
z"/>
<path fill="#79797A" opacity="1.000000" stroke="none" 
	d="
M111.179344,122.195740 
	C111.164047,121.964760 111.634956,121.974205 111.868530,122.006180 
	C111.974251,122.575523 111.767914,122.929611 111.179344,122.195740 
z"/>
<path fill="#0B0B0B" opacity="1.000000" stroke="none" 
	d="
M264.412018,78.241814 
	C264.229797,77.804161 264.398499,77.452652 264.884583,77.037582 
	C265.055664,77.425339 264.909302,77.876648 264.412018,78.241814 
z"/>
<path fill="#7F8081" opacity="1.000000" stroke="none" 
	d="
M135.828506,118.593521 
	C135.588852,118.962936 135.334000,118.938499 134.696899,118.855545 
	C134.499268,117.807785 134.894196,117.346191 135.828506,118.593521 
z"/>
<path fill="#767778" opacity="1.000000" stroke="none" 
	d="
M202.997040,112.987968 
	C203.073059,113.065109 203.167938,113.130432 203.262817,113.195755 
	C203.197266,113.201782 203.131729,113.207802 203.055573,113.077499 
	C203.044968,112.941170 203.015930,112.976143 202.997040,112.987968 
z"/>
<path fill="#767778" opacity="1.000000" stroke="none" 
	d="
M155.997253,112.987747 
	C156.073212,113.064987 156.168060,113.130386 156.262894,113.195793 
	C156.197357,113.201752 156.131821,113.207703 156.055710,113.077301 
	C156.045135,112.940948 156.016113,112.975922 155.997253,112.987747 
z"/>
<path fill="#79797A" opacity="1.000000" stroke="none" 
	d="
M128.214264,113.023209 
	C128.297638,112.511520 128.580444,112.291054 129.128189,111.993141 
	C129.443436,112.159248 129.493759,112.402794 129.224243,112.839127 
	C128.904419,113.031906 128.970337,113.006790 128.998718,112.985855 
	C128.822647,113.081413 128.618195,113.197914 128.214264,113.023209 
z"/>
<path fill="#FCFCFD" opacity="1.000000" stroke="none" 
	d="
M259.904480,74.577957 
	C255.007111,78.585899 249.449738,80.756554 243.842056,82.793510 
	C241.351089,83.698349 238.922394,84.132248 236.175674,82.971024 
	C232.752838,81.523964 229.297485,82.030113 226.622253,84.956818 
	C225.742065,85.919731 225.770035,87.169312 226.753922,88.100967 
	C229.638702,90.832664 233.213943,90.787422 236.578949,89.729126 
	C242.399460,87.898590 248.073944,85.603806 254.070923,83.702515 
	C241.215424,99.853722 221.460861,98.959579 209.966553,81.893173 
	C200.177109,67.358086 200.747696,44.888569 211.241928,31.668884 
	C224.545822,14.909853 245.891144,16.272644 256.715729,34.776230 
	C264.041016,47.298092 264.789551,60.563759 259.904480,74.577957 
z"/>
<path fill="#F4F4F4" opacity="1.000000" stroke="none" 
	d="
M163.682648,62.731499 
	C157.896957,66.302101 152.325348,69.591988 146.706116,72.798409 
	C145.757446,73.339737 144.756378,74.641869 143.611435,73.874153 
	C142.361023,73.035713 142.931061,71.451172 143.055984,70.202072 
	C143.545914,65.303856 146.134247,61.803577 150.660522,59.990543 
	C155.487228,58.057178 160.058929,58.438046 163.682648,62.731499 
z"/>
<path fill="#F5F5F5" opacity="1.000000" stroke="none" 
	d="
M84.966843,70.507133 
	C88.262337,72.964569 89.510475,75.821007 88.102921,79.386589 
	C86.889977,82.459198 84.438385,83.873421 81.143776,83.992851 
	C77.880798,84.111145 75.838287,82.375465 74.596230,79.646667 
	C73.408371,77.036949 73.853401,74.504448 75.684044,72.259689 
	C78.143143,69.244316 81.242134,69.101677 84.966843,70.507133 
z"/>
<path fill="#FCFDFD" opacity="1.000000" stroke="none" 
	d="
M87.186874,62.875637 
	C87.899910,63.243507 88.617569,63.959541 86.790710,63.954762 
	C86.667984,63.579048 86.808105,63.371983 87.186874,62.875637 
z"/>
<path fill="#ECECEC" opacity="1.000000" stroke="none" 
	d="
M127.656555,112.771698 
	C128.178680,112.792015 128.342529,112.852043 128.766739,112.938492 
	C129.388504,116.363518 125.812950,115.783516 124.231369,117.699890 
	C122.847351,117.596069 122.981430,116.687683 123.057526,115.489243 
	C124.226189,113.911469 125.435905,112.776093 127.656555,112.771698 
z"/>
</svg>