<svg version="1.1" id="Layer_1" xmlns="http://www.w3.org/2000/svg" xmlns:xlink="http://www.w3.org/1999/xlink" x="0px" y="0px"
	 width="100%" viewBox="0 0 512 512" enable-background="new 0 0 512 512" xml:space="preserve">
<path fill="transparent" opacity="1.000000" stroke="none" 
	d="
M513.000000,141.000015 
	C513.000000,264.951508 513.000000,388.903046 513.000000,513.000000 
	C427.748566,513.000000 342.497070,513.000000 257.245544,513.000000 
	C171.945587,513.000000 86.645615,513.000000 1.000000,513.000000 
	C1.000000,437.978333 1.000000,362.956146 1.395944,287.616760 
	C1.861525,289.125366 1.733632,290.984741 2.036782,292.770905 
	C3.063555,298.820648 4.719616,300.634338 9.756502,300.965729 
	C16.590155,301.415405 20.136471,296.706268 19.013712,289.275360 
	C18.187054,283.804230 17.147221,278.286194 17.164082,272.791992 
	C17.177332,268.474487 15.489770,265.307739 11.996207,264.252411 
	C7.989782,263.042145 3.568583,263.556152 1.000000,268.000000 
	C1.000000,179.042419 1.000000,90.084831 1.000000,1.063626 
	C171.542892,1.063626 342.085815,1.063626 513.000000,1.063626 
	C513.000000,44.687981 513.000000,88.377007 512.668579,132.462906 
	C508.548828,128.734253 504.676056,124.682388 500.993042,120.464836 
	C496.235748,115.017052 492.599945,113.861702 485.912567,116.027466 
	C480.270966,117.854546 474.684265,119.886330 468.961243,121.405563 
	C467.201935,121.872589 464.353546,121.670929 463.227692,120.548225 
	C454.016510,111.362617 445.094971,101.886597 436.124115,92.539146 
	C457.918640,80.438225 479.457550,68.588623 500.872070,56.518349 
	C506.792480,53.181301 507.379578,47.206146 502.578064,42.101170 
	C498.357269,37.613602 493.449615,33.712982 489.615601,28.935015 
	C484.274109,22.278402 478.179718,22.212393 470.797424,24.543415 
	C446.804169,32.119507 422.723083,39.419235 398.632568,46.681812 
	C396.914520,47.199745 394.077759,47.334202 393.062286,46.330563 
	C384.696899,38.062481 375.624573,30.229277 368.713654,20.832268 
	C356.750702,4.565860 332.238922,7.475583 322.870178,22.639610 
	C320.651154,26.231293 318.988403,30.166677 317.069702,33.943916 
	C312.130005,32.132793 306.597870,33.590950 305.248962,37.534668 
	C303.448944,42.797337 304.024292,47.525509 310.613953,49.089287 
	C319.096649,51.102306 324.654480,56.950836 330.434387,62.823853 
	C337.632141,70.137573 345.274628,77.012024 352.621765,84.182007 
	C353.694489,85.228859 355.111145,87.116524 354.814850,88.183624 
	C352.514221,96.468109 349.832153,104.646675 347.222290,113.004791 
	C264.919617,56.536289 152.863037,72.447556 91.907791,154.757172 
	C40.575840,224.072205 40.488045,333.006683 119.527489,402.837769 
	C184.833282,460.535248 289.642090,467.600189 364.493896,400.728973 
	C432.648529,339.840851 448.146057,233.111221 387.251984,151.414642 
	C391.442810,143.878357 395.616272,136.373306 399.876465,128.712296 
	C409.621307,137.654114 419.130859,146.290085 428.471893,155.104645 
	C429.310028,155.895599 429.563354,157.978027 429.227295,159.229446 
	C427.442078,165.876846 425.190399,172.401398 423.485229,179.067001 
	C422.368896,183.430923 422.240906,187.608612 426.435791,191.124863 
	C431.012848,194.961472 434.970001,199.534103 439.233551,203.749237 
	C443.162689,207.633682 449.306396,206.791687 451.985138,201.887634 
	C456.760040,193.146088 461.276917,184.261627 466.155487,175.579559 
	C468.418762,171.551819 470.498596,166.763336 474.033722,164.248764 
	C480.793762,159.440277 488.629944,156.173553 495.840546,151.960693 
	C501.696167,148.539520 507.290070,144.670456 513.000000,141.000015 
M466.000000,270.375977 
	C465.666656,274.938904 465.179108,279.497253 465.042328,284.066071 
	C464.899048,288.852722 468.532227,292.718689 473.065308,292.998993 
	C476.954254,293.239471 481.574005,289.874023 481.900604,285.807098 
	C482.531616,277.950592 482.928345,270.052704 482.895355,262.174194 
	C482.876740,257.726532 479.860535,254.870789 475.535858,254.075165 
	C471.358063,253.306580 468.094238,255.199020 467.030060,259.309296 
	C466.190155,262.553345 466.307709,266.045258 466.000000,270.375977 
M218.198212,23.001339 
	C210.830185,24.006998 203.445679,24.907160 196.099838,26.054880 
	C191.085159,26.838383 187.300293,31.219263 188.048737,35.388634 
	C189.152023,41.534798 192.070236,43.523663 197.811554,42.986778 
	C200.555145,42.730221 203.291718,42.376595 206.020630,41.990341 
	C210.823669,41.310516 215.684097,40.857647 220.397339,39.774067 
	C224.738174,38.776100 226.744019,34.914658 226.764740,31.062212 
	C226.788879,26.579519 223.281418,24.129814 218.198212,23.001339 
M180.944153,479.425201 
	C180.143173,479.283600 179.344772,479.037079 178.540833,479.017487 
	C173.463501,478.893646 169.514526,481.310883 169.003159,484.799255 
	C168.145660,490.648712 170.081100,493.809113 176.012100,495.497437 
	C182.805679,497.431244 189.650925,499.200500 196.522034,500.838745 
	C200.588348,501.808258 206.070755,498.034515 206.983521,493.953979 
	C207.905090,489.834015 205.530792,485.242401 201.455795,484.230896 
	C194.897339,482.602875 188.243042,481.360992 180.944153,479.425201 
M273.375854,24.000004 
	C268.403351,23.366634 263.398254,22.917509 258.467834,22.046005 
	C253.902466,21.239031 248.357971,24.271721 247.117111,28.668543 
	C245.975006,32.715416 249.056824,38.139004 253.698044,38.767059 
	C261.928589,39.880836 270.257446,40.751087 278.537506,40.689632 
	C280.705963,40.673538 284.235901,37.140972 284.735382,34.725903 
	C286.159607,27.839592 283.728210,25.785574 273.375854,24.000004 
M17.283081,205.034058 
	C11.006081,203.464066 7.389077,205.576920 6.012094,211.994431 
	C4.527044,218.915588 3.211726,225.878632 2.045754,232.860718 
	C1.351459,237.018295 4.892123,241.979004 8.869201,242.963776 
	C12.770366,243.929733 17.029879,241.323135 18.067831,236.318344 
	C19.736904,228.270432 21.046345,220.109741 21.772371,211.931427 
	C21.952639,209.900803 19.312443,207.619766 17.283081,205.034058 
M368.987030,452.017700 
	C365.883057,452.698120 362.488464,452.799805 359.736725,454.181641 
	C354.311584,456.905884 349.195435,460.264496 344.042725,463.505768 
	C340.359985,465.822388 338.591156,471.570923 340.334381,474.834045 
	C342.347229,478.601959 348.038147,480.214142 352.343170,477.844788 
	C358.371765,474.526947 364.320343,471.039581 370.124207,467.343719 
	C377.038330,462.940887 376.803162,456.466248 368.987030,452.017700 
M167.460220,50.945175 
	C170.497070,47.144897 171.365372,42.999699 168.348434,38.946190 
	C165.275925,34.817970 160.854752,35.447437 156.822678,37.104271 
	C150.317490,39.777340 143.947388,42.793194 137.600983,45.832859 
	C134.328476,47.400249 132.669662,52.949078 134.139572,56.473106 
	C135.378464,59.443310 140.486328,61.913868 143.701797,60.639965 
	C151.415405,57.584019 159.019363,54.251297 167.460220,50.945175 
M90.951355,429.436615 
	C88.596916,427.410645 86.271179,425.350067 83.881531,423.366486 
	C79.883781,420.048035 76.088783,419.688660 72.639343,421.993530 
	C68.417519,424.814484 67.303909,428.866394 71.092552,433.295959 
	C76.553749,439.681000 82.957527,445.379883 89.576515,450.586670 
	C91.764145,452.307556 95.944801,452.388184 98.816422,449.690979 
	C101.529427,447.142731 103.093575,443.911285 100.886765,440.720215 
	C98.191238,436.822510 94.630234,433.523346 90.951355,429.436615 
M27.555498,357.042786 
	C31.453547,356.490540 33.816402,354.105621 32.883678,350.351593 
	C30.968081,342.641632 28.479433,335.068085 26.062357,327.490784 
	C24.403194,322.289459 20.246559,319.849579 15.716396,321.102692 
	C11.628793,322.233368 8.737874,326.940430 10.115047,331.676208 
	C12.205044,338.863159 14.659717,345.981995 17.546345,352.884308 
	C19.114389,356.633698 22.501247,358.633545 27.555498,357.042786 
M72.655388,105.106720 
	C67.317863,100.590759 63.635902,100.459518 59.222641,105.371269 
	C54.453594,110.678993 49.961555,116.259140 45.663189,121.957680 
	C42.966064,125.533363 43.804901,129.645126 47.199093,132.703308 
	C51.371483,136.462646 57.107368,135.579010 60.724598,130.743500 
	C64.016136,126.343376 67.359024,121.976524 70.826256,117.714569 
	C73.776993,114.087494 75.325653,110.310661 72.655388,105.106720 
M435.032196,376.652466 
	C432.654816,380.646729 430.303467,384.656769 427.893463,388.631287 
	C425.015167,393.378052 425.919342,397.890717 430.384644,400.779266 
	C434.030884,403.138000 439.474548,402.215363 441.727478,398.646545 
	C445.408966,392.814728 449.174774,387.012360 452.420410,380.938599 
	C454.222778,377.565735 455.608551,373.424927 452.280212,370.138092 
	C449.242126,367.137970 445.096375,365.676147 441.354309,368.413361 
	C438.864014,370.234955 437.389221,373.444855 435.032196,376.652466 
M136.018341,461.526459 
	C132.861801,460.002228 129.790543,458.254730 126.527771,457.008667 
	C122.179108,455.347839 117.905357,456.898041 116.182167,460.547516 
	C114.408600,464.303619 115.709457,469.535950 118.821915,471.250732 
	C125.572243,474.969727 132.373978,478.623444 139.339325,481.912872 
	C143.160065,483.717316 148.056808,481.821869 149.787872,478.582001 
	C152.019470,474.405334 151.070526,470.166595 146.826599,467.422668 
	C143.604599,465.339539 140.052521,463.766998 136.018341,461.526459 
M22.030231,162.685562 
	C20.456964,166.519455 18.701153,170.290710 17.358837,174.203827 
	C15.843614,178.621033 17.951908,184.250717 21.373312,185.821594 
	C24.563501,187.286331 31.011570,185.249481 32.601158,181.816284 
	C35.826946,174.849258 39.092411,167.849670 41.493835,160.583359 
	C42.201054,158.443436 40.767418,154.645126 39.018688,152.923325 
	C37.408527,151.337982 33.985744,150.813568 31.486290,151.064682 
	C25.176085,151.698593 25.284765,158.185303 22.030231,162.685562 
M111.042191,80.448654 
	C111.331245,80.301239 111.637802,80.180283 111.906769,80.002472 
	C116.663223,76.858414 118.784874,70.896866 116.525528,67.044983 
	C114.170174,63.029385 108.331238,61.945129 103.739365,65.113342 
	C98.017296,69.061356 92.245277,73.043907 87.111275,77.692375 
	C84.528793,80.030617 82.521317,83.647346 84.916939,87.746300 
	C87.202202,91.656410 90.505203,94.184258 94.695244,91.858261 
	C100.268150,88.764610 105.277336,84.655479 111.042191,80.448654 
M455.036194,331.695160 
	C454.406860,333.671387 453.680573,335.622711 453.166077,337.628387 
	C451.495026,344.142578 453.362854,347.868134 459.054871,349.571991 
	C463.364075,350.861908 467.181396,348.196442 469.094635,342.525543 
	C470.984161,336.924866 472.948853,331.346527 474.691406,325.700012 
	C476.440460,320.032440 474.015320,314.511078 469.403809,313.144043 
	C464.617157,311.725067 461.008392,314.232574 458.903320,320.501801 
	C457.732544,323.988525 456.633667,327.499390 455.036194,331.695160 
M48.073387,406.610138 
	C52.002163,409.787170 56.638874,409.034943 59.108231,405.867798 
	C60.909306,403.557770 61.218845,398.407959 59.873325,395.660095 
	C56.788895,389.360931 52.455635,383.632446 48.290195,377.919586 
	C45.991283,374.766632 39.458199,373.842377 36.813148,375.738281 
	C33.885101,377.837036 32.358910,383.411255 34.539131,386.919891 
	C38.608753,393.469147 43.203182,399.692291 48.073387,406.610138 
M389.253815,432.214386 
	C387.499939,436.336975 386.670227,440.608398 390.568787,443.808411 
	C394.963287,447.415375 398.908142,446.584503 403.691956,441.804443 
	C407.914337,437.585388 412.139832,433.369415 416.354980,429.143158 
	C419.580688,425.908966 420.056274,419.654083 417.307465,416.812683 
	C414.427887,413.836090 407.632202,414.040771 404.366180,417.261963 
	C399.504364,422.057068 394.684448,426.894562 389.253815,432.214386 
M465.475708,230.984299 
	C468.093536,233.524567 470.960358,234.555634 474.585693,233.033218 
	C477.913025,231.635956 479.646881,229.328934 479.004700,225.795120 
	C477.456482,217.275253 476.173920,208.660110 473.836761,200.349823 
	C472.609161,195.984726 467.568909,196.264679 464.205383,197.283264 
	C462.065186,197.931366 459.018646,201.419846 459.284698,203.200363 
	C460.651520,212.346420 462.960297,221.351669 465.475708,230.984299 
M263.971588,491.800598 
	C261.740448,487.871277 257.866089,487.040894 253.936859,487.076752 
	C247.366760,487.136597 240.802505,487.703766 234.232773,487.987305 
	C229.817123,488.177917 227.003204,491.225861 227.000000,495.980499 
	C226.996796,500.728424 229.814560,503.945770 234.194427,503.982971 
	C241.519562,504.045197 248.847473,504.102844 256.170654,503.967712 
	C262.164703,503.857147 265.839172,498.374878 263.971588,491.800598 
M320.090485,479.637878 
	C317.713989,476.843811 315.038147,475.792328 311.222992,476.917023 
	C304.456757,478.911652 297.521149,480.323639 290.699005,482.139557 
	C286.810974,483.174469 284.460388,487.167725 285.002533,491.277557 
	C285.537018,495.329315 288.800476,498.483093 293.093658,497.877716 
	C299.116241,497.028534 305.017365,495.323456 310.974457,494.002686 
	C320.284058,491.938690 322.073944,489.396301 320.090485,479.637878 
z"/>
<path fill="#000000" opacity="1.000000" stroke="none" 
	d="
M513.000000,140.555847 
	C507.290070,144.670456 501.696167,148.539520 495.840546,151.960693 
	C488.629944,156.173553 480.793762,159.440277 474.033722,164.248764 
	C470.498596,166.763336 468.418762,171.551819 466.155487,175.579559 
	C461.276917,184.261627 456.760040,193.146088 451.985138,201.887634 
	C449.306396,206.791687 443.162689,207.633682 439.233551,203.749237 
	C434.970001,199.534103 431.012848,194.961472 426.435791,191.124863 
	C422.240906,187.608612 422.368896,183.430923 423.485229,179.067001 
	C425.190399,172.401398 427.442078,165.876846 429.227295,159.229446 
	C429.563354,157.978027 429.310028,155.895599 428.471893,155.104645 
	C419.130859,146.290085 409.621307,137.654114 399.876465,128.712296 
	C395.616272,136.373306 391.442810,143.878357 387.251984,151.414642 
	C448.146057,233.111221 432.648529,339.840851 364.493896,400.728973 
	C289.642090,467.600189 184.833282,460.535248 119.527489,402.837769 
	C40.488045,333.006683 40.575840,224.072205 91.907791,154.757172 
	C152.863037,72.447556 264.919617,56.536289 347.222290,113.004791 
	C349.832153,104.646675 352.514221,96.468109 354.814850,88.183624 
	C355.111145,87.116524 353.694489,85.228859 352.621765,84.182007 
	C345.274628,77.012024 337.632141,70.137573 330.434387,62.823853 
	C324.654480,56.950836 319.096649,51.102306 310.613953,49.089287 
	C304.024292,47.525509 303.448944,42.797337 305.248962,37.534668 
	C306.597870,33.590950 312.130005,32.132793 317.069702,33.943916 
	C318.988403,30.166677 320.651154,26.231293 322.870178,22.639610 
	C332.238922,7.475583 356.750702,4.565860 368.713654,20.832268 
	C375.624573,30.229277 384.696899,38.062481 393.062286,46.330563 
	C394.077759,47.334202 396.914520,47.199745 398.632568,46.681812 
	C422.723083,39.419235 446.804169,32.119507 470.797424,24.543415 
	C478.179718,22.212393 484.274109,22.278402 489.615601,28.935015 
	C493.449615,33.712982 498.357269,37.613602 502.578064,42.101170 
	C507.379578,47.206146 506.792480,53.181301 500.872070,56.518349 
	C479.457550,68.588623 457.918640,80.438225 436.124115,92.539146 
	C445.094971,101.886597 454.016510,111.362617 463.227692,120.548225 
	C464.353546,121.670929 467.201935,121.872589 468.961243,121.405563 
	C474.684265,119.886330 480.270966,117.854546 485.912567,116.027466 
	C492.599945,113.861702 496.235748,115.017052 500.993042,120.464836 
	C504.676056,124.682388 508.548828,128.734253 512.668579,132.929886 
	C513.000000,135.370560 513.000000,137.741104 513.000000,140.555847 
M323.358490,339.969574 
	C331.658203,331.727692 340.012024,323.539429 348.245361,315.231750 
	C361.692963,301.662659 368.098328,284.867981 369.937622,266.207764 
	C371.211456,253.284042 377.608917,243.853531 388.281128,236.980103 
	C393.810059,233.419220 399.371735,229.909149 404.836823,226.428192 
	C399.999451,204.873932 391.126740,185.189514 378.579834,166.943863 
	C373.909302,175.637329 369.579681,184.069077 364.895142,192.298767 
	C361.081512,198.998444 355.121613,199.591492 349.682098,194.164261 
	C344.138733,188.633438 338.613434,183.084457 333.067902,177.555832 
	C330.460388,174.956299 329.446716,172.402603 330.740051,168.392212 
	C334.578552,156.489471 337.897247,144.413330 341.119720,132.325134 
	C341.516907,130.835251 340.650391,128.078415 339.441772,127.229630 
	C320.513550,113.936569 299.927643,104.264107 276.610016,99.283371 
	C277.287140,100.339447 277.683838,100.964821 278.087036,101.585976 
	C286.326355,114.279327 289.985687,127.634514 286.169037,142.925949 
	C282.128845,159.112915 272.780701,171.928818 261.712097,183.544373 
	C251.926346,193.813690 241.135773,203.132065 230.690796,212.763992 
	C225.264557,217.767868 219.376892,222.290009 214.139801,227.476257 
	C205.399429,236.131714 196.707886,244.874924 188.564941,254.084457 
	C180.383743,263.337219 185.117371,273.087921 193.442505,278.001068 
	C200.505234,282.169220 207.869095,285.829590 214.905365,290.039459 
	C223.598572,295.240753 232.310623,300.470215 240.541306,306.349976 
	C243.141922,308.207794 245.189926,312.005249 245.817108,315.239594 
	C247.656815,324.727020 243.566132,330.667542 233.785934,333.975006 
	C216.706345,339.750977 199.045013,339.520966 181.748856,336.641602 
	C160.531372,333.109375 142.282730,322.150970 125.638870,308.933655 
	C113.080910,298.961060 101.408882,287.879425 89.012100,277.693573 
	C84.820366,274.249420 79.615822,272.037872 74.274872,268.912323 
	C76.776375,374.116211 179.646881,451.257233 277.999725,426.342804 
	C277.999725,420.068024 277.819672,413.742279 278.035034,407.429962 
	C278.580414,391.445374 286.198822,378.289948 296.136749,366.665039 
	C304.252075,357.172119 313.753479,348.864197 323.358490,339.969574 
M185.513809,293.008698 
	C185.136337,292.683838 184.801056,292.283691 184.375244,292.045105 
	C173.821472,286.132324 167.284500,276.982391 167.363266,265.103302 
	C167.430069,255.028381 172.224838,245.800949 179.273422,238.323044 
	C186.264343,230.906326 193.455643,223.654449 200.903214,216.698761 
	C209.050827,209.089233 217.346222,201.596390 226.017609,194.598419 
	C240.899155,182.588715 254.765839,169.632446 264.367706,152.940552 
	C269.341278,144.294495 271.542938,134.858154 269.207764,124.468849 
	C266.629944,112.999893 259.758972,104.713463 251.546112,97.142509 
	C250.628784,96.296867 248.853592,95.984184 247.512085,96.059891 
	C237.677765,96.614845 227.824142,97.054756 218.030762,98.058945 
	C200.744232,99.831474 184.401703,105.177269 168.839874,112.698425 
	C144.524261,124.450348 124.092079,141.124207 107.821190,162.723190 
	C94.024994,181.037140 83.990578,201.223557 79.058197,223.700317 
	C76.892860,233.567703 75.494507,243.603409 73.889938,252.752731 
	C78.532082,254.266510 82.594643,255.236053 86.360085,256.884369 
	C98.653183,262.265717 107.838921,271.903137 117.875267,280.367981 
	C126.364532,287.527954 134.418060,295.321075 143.491302,301.648193 
	C163.329346,315.481995 185.070633,324.179962 209.897385,321.916565 
	C215.955124,321.364319 221.918335,319.774841 227.925003,318.662231 
	C227.936111,318.151550 227.947235,317.640900 227.958344,317.130219 
	C226.172638,315.741028 224.539261,314.070160 222.576340,313.008667 
	C210.437561,306.444153 198.224640,300.016785 185.513809,293.008698 
M383.033234,125.633881 
	C385.744751,120.887657 388.364014,116.085609 391.193085,111.410530 
	C394.165344,106.498795 399.469696,105.402611 403.752899,109.364479 
	C417.724060,122.287590 431.388397,135.542664 445.149261,148.692566 
	C447.692963,151.123352 448.662292,153.733810 447.321259,157.459152 
	C444.990448,163.934250 443.136536,170.596329 441.407562,177.264282 
	C440.819550,179.531998 438.873566,182.670578 443.528961,184.101547 
	C448.618134,174.950958 453.636536,165.663361 458.958069,156.552872 
	C460.222260,154.388565 462.207947,152.309204 464.365387,151.061707 
	C473.401184,145.836899 482.628510,140.943237 491.785645,135.928238 
	C491.825165,135.416428 491.864685,134.904617 491.904205,134.392807 
	C489.908356,134.123215 487.768646,133.254166 485.942657,133.692368 
	C479.547913,135.227112 473.167114,136.943115 466.963470,139.112106 
	C462.005920,140.845398 458.207245,140.021194 454.651337,136.194458 
	C443.960663,124.689514 433.123749,113.320564 422.383789,101.861183 
	C420.261963,99.597229 418.150024,97.288666 416.330414,94.784904 
	C413.523712,90.923035 414.518433,86.264290 418.898987,83.655411 
	C426.771851,78.966705 434.756958,74.459648 442.785461,70.040756 
	C456.535370,62.472843 470.354858,55.031334 485.324402,46.895851 
	C482.635193,44.583260 480.622498,42.627327 478.359558,41.024658 
	C477.531830,40.438435 476.000427,40.316563 474.976532,40.617481 
	C463.438354,44.008415 451.930664,47.503796 440.426361,51.009140 
	C425.558960,55.539215 410.719727,60.162720 395.828705,64.613441 
	C391.933136,65.777786 388.082764,65.398865 385.065948,62.235546 
	C374.558929,51.218361 364.107239,40.148335 353.585663,29.145123 
	C352.728790,28.249022 351.587646,27.482260 350.431519,27.038931 
	C344.911896,24.922350 339.665924,27.017183 335.768982,32.749592 
	C332.835541,37.064671 333.370605,42.711533 337.506439,46.951782 
	C340.483093,50.003582 343.915649,52.604843 347.017883,55.541195 
	C354.716248,62.827911 362.307770,70.227600 370.014709,77.505104 
	C372.816254,80.150536 373.712463,83.218765 372.622162,86.830345 
	C364.700378,113.071877 356.695068,139.288498 348.922333,165.573959 
	C348.415009,167.289536 349.257782,169.683762 350.117889,171.447632 
	C351.022858,173.303436 352.703796,174.780853 354.456207,176.926208 
	C364.331390,159.421753 373.648041,142.907272 383.033234,125.633881 
M294.995361,403.611725 
	C294.548340,409.693481 294.101288,415.775269 293.625854,422.243134 
	C368.378479,399.265594 418.913544,319.557953 407.284271,243.872833 
	C405.597260,244.937805 404.011261,245.981033 402.385651,246.958359 
	C392.034546,253.181564 385.534454,261.570068 384.856720,274.297577 
	C384.271393,285.289856 381.085236,295.993195 375.654877,305.509186 
	C363.688293,326.479126 345.742950,342.222137 327.676758,357.676422 
	C313.127747,370.121979 300.532959,383.827881 294.995361,403.611725 
z"/>
<path fill="#000000" opacity="1.000000" stroke="none" 
	d="
M1.000000,268.468262 
	C3.568583,263.556152 7.989782,263.042145 11.996207,264.252411 
	C15.489770,265.307739 17.177332,268.474487 17.164082,272.791992 
	C17.147221,278.286194 18.187054,283.804230 19.013712,289.275360 
	C20.136471,296.706268 16.590155,301.415405 9.756502,300.965729 
	C4.719616,300.634338 3.063555,298.820648 2.036782,292.770905 
	C1.733632,290.984741 1.861525,289.125366 1.395944,287.149780 
	C1.000000,280.978851 1.000000,274.957703 1.000000,268.468262 
z"/>
<path fill="#000000" opacity="1.000000" stroke="none" 
	d="
M466.000000,269.901550 
	C466.307709,266.045258 466.190155,262.553345 467.030060,259.309296 
	C468.094238,255.199020 471.358063,253.306580 475.535858,254.075165 
	C479.860535,254.870789 482.876740,257.726532 482.895355,262.174194 
	C482.928345,270.052704 482.531616,277.950592 481.900604,285.807098 
	C481.574005,289.874023 476.954254,293.239471 473.065308,292.998993 
	C468.532227,292.718689 464.899048,288.852722 465.042328,284.066071 
	C465.179108,279.497253 465.666656,274.938904 466.000000,269.901550 
z"/>
<path fill="#000000" opacity="1.000000" stroke="none" 
	d="
M218.622498,23.010874 
	C223.281418,24.129814 226.788879,26.579519 226.764740,31.062212 
	C226.744019,34.914658 224.738174,38.776100 220.397339,39.774067 
	C215.684097,40.857647 210.823669,41.310516 206.020630,41.990341 
	C203.291718,42.376595 200.555145,42.730221 197.811554,42.986778 
	C192.070236,43.523663 189.152023,41.534798 188.048737,35.388634 
	C187.300293,31.219263 191.085159,26.838383 196.099838,26.054880 
	C203.445679,24.907160 210.830185,24.006998 218.622498,23.010874 
z"/>
<path fill="#000000" opacity="1.000000" stroke="none" 
	d="
M181.286697,479.690582 
	C188.243042,481.360992 194.897339,482.602875 201.455795,484.230896 
	C205.530792,485.242401 207.905090,489.834015 206.983521,493.953979 
	C206.070755,498.034515 200.588348,501.808258 196.522034,500.838745 
	C189.650925,499.200500 182.805679,497.431244 176.012100,495.497437 
	C170.081100,493.809113 168.145660,490.648712 169.003159,484.799255 
	C169.514526,481.310883 173.463501,478.893646 178.540833,479.017487 
	C179.344772,479.037079 180.143173,479.283600 181.286697,479.690582 
z"/>
<path fill="#000000" opacity="1.000000" stroke="none" 
	d="
M273.822723,24.000053 
	C283.728210,25.785574 286.159607,27.839592 284.735382,34.725903 
	C284.235901,37.140972 280.705963,40.673538 278.537506,40.689632 
	C270.257446,40.751087 261.928589,39.880836 253.698044,38.767059 
	C249.056824,38.139004 245.975006,32.715416 247.117111,28.668543 
	C248.357971,24.271721 253.902466,21.239031 258.467834,22.046005 
	C263.398254,22.917509 268.403351,23.366634 273.822723,24.000053 
z"/>
<path fill="#000000" opacity="1.000000" stroke="none" 
	d="
M17.625885,205.243958 
	C19.312443,207.619766 21.952639,209.900803 21.772371,211.931427 
	C21.046345,220.109741 19.736904,228.270432 18.067831,236.318344 
	C17.029879,241.323135 12.770366,243.929733 8.869201,242.963776 
	C4.892123,241.979004 1.351459,237.018295 2.045754,232.860718 
	C3.211726,225.878632 4.527044,218.915588 6.012094,211.994431 
	C7.389077,205.576920 11.006081,203.464066 17.625885,205.243958 
z"/>
<path fill="#000000" opacity="1.000000" stroke="none" 
	d="
M369.385742,452.135010 
	C376.803162,456.466248 377.038330,462.940887 370.124207,467.343719 
	C364.320343,471.039581 358.371765,474.526947 352.343170,477.844788 
	C348.038147,480.214142 342.347229,478.601959 340.334381,474.834045 
	C338.591156,471.570923 340.359985,465.822388 344.042725,463.505768 
	C349.195435,460.264496 354.311584,456.905884 359.736725,454.181641 
	C362.488464,452.799805 365.883057,452.698120 369.385742,452.135010 
z"/>
<path fill="#000000" opacity="1.000000" stroke="none" 
	d="
M167.063904,50.987720 
	C159.019363,54.251297 151.415405,57.584019 143.701797,60.639965 
	C140.486328,61.913868 135.378464,59.443310 134.139572,56.473106 
	C132.669662,52.949078 134.328476,47.400249 137.600983,45.832859 
	C143.947388,42.793194 150.317490,39.777340 156.822678,37.104271 
	C160.854752,35.447437 165.275925,34.817970 168.348434,38.946190 
	C171.365372,42.999699 170.497070,47.144897 167.063904,50.987720 
z"/>
<path fill="#000000" opacity="1.000000" stroke="none" 
	d="
M91.197433,429.700989 
	C94.630234,433.523346 98.191238,436.822510 100.886765,440.720215 
	C103.093575,443.911285 101.529427,447.142731 98.816422,449.690979 
	C95.944801,452.388184 91.764145,452.307556 89.576515,450.586670 
	C82.957527,445.379883 76.553749,439.681000 71.092552,433.295959 
	C67.303909,428.866394 68.417519,424.814484 72.639343,421.993530 
	C76.088783,419.688660 79.883781,420.048035 83.881531,423.366486 
	C86.271179,425.350067 88.596916,427.410645 91.197433,429.700989 
z"/>
<path fill="#000000" opacity="1.000000" stroke="none" 
	d="
M27.249790,357.308990 
	C22.501247,358.633545 19.114389,356.633698 17.546345,352.884308 
	C14.659717,345.981995 12.205044,338.863159 10.115047,331.676208 
	C8.737874,326.940430 11.628793,322.233368 15.716396,321.102692 
	C20.246559,319.849579 24.403194,322.289459 26.062357,327.490784 
	C28.479433,335.068085 30.968081,342.641632 32.883678,350.351593 
	C33.816402,354.105621 31.453547,356.490540 27.249790,357.308990 
z"/>
<path fill="#000000" opacity="1.000000" stroke="none" 
	d="
M72.915726,105.424545 
	C75.325653,110.310661 73.776993,114.087494 70.826256,117.714569 
	C67.359024,121.976524 64.016136,126.343376 60.724598,130.743500 
	C57.107368,135.579010 51.371483,136.462646 47.199093,132.703308 
	C43.804901,129.645126 42.966064,125.533363 45.663189,121.957680 
	C49.961555,116.259140 54.453594,110.678993 59.222641,105.371269 
	C63.635902,100.459518 67.317863,100.590759 72.915726,105.424545 
z"/>
<path fill="#000000" opacity="1.000000" stroke="none" 
	d="
M435.246063,376.342926 
	C437.389221,373.444855 438.864014,370.234955 441.354309,368.413361 
	C445.096375,365.676147 449.242126,367.137970 452.280212,370.138092 
	C455.608551,373.424927 454.222778,377.565735 452.420410,380.938599 
	C449.174774,387.012360 445.408966,392.814728 441.727478,398.646545 
	C439.474548,402.215363 434.030884,403.138000 430.384644,400.779266 
	C425.919342,397.890717 425.015167,393.378052 427.893463,388.631287 
	C430.303467,384.656769 432.654816,380.646729 435.246063,376.342926 
z"/>
<path fill="#000000" opacity="1.000000" stroke="none" 
	d="
M136.332825,461.746857 
	C140.052521,463.766998 143.604599,465.339539 146.826599,467.422668 
	C151.070526,470.166595 152.019470,474.405334 149.787872,478.582001 
	C148.056808,481.821869 143.160065,483.717316 139.339325,481.912872 
	C132.373978,478.623444 125.572243,474.969727 118.821915,471.250732 
	C115.709457,469.535950 114.408600,464.303619 116.182167,460.547516 
	C117.905357,456.898041 122.179108,455.347839 126.527771,457.008667 
	C129.790543,458.254730 132.861801,460.002228 136.332825,461.746857 
z"/>
<path fill="#000000" opacity="1.000000" stroke="none" 
	d="
M22.243992,162.358597 
	C25.284765,158.185303 25.176085,151.698593 31.486290,151.064682 
	C33.985744,150.813568 37.408527,151.337982 39.018688,152.923325 
	C40.767418,154.645126 42.201054,158.443436 41.493835,160.583359 
	C39.092411,167.849670 35.826946,174.849258 32.601158,181.816284 
	C31.011570,185.249481 24.563501,187.286331 21.373312,185.821594 
	C17.951908,184.250717 15.843614,178.621033 17.358837,174.203827 
	C18.701153,170.290710 20.456964,166.519455 22.243992,162.358597 
z"/>
<path fill="#000000" opacity="1.000000" stroke="none" 
	d="
M110.785446,80.715630 
	C105.277336,84.655479 100.268150,88.764610 94.695244,91.858261 
	C90.505203,94.184258 87.202202,91.656410 84.916939,87.746300 
	C82.521317,83.647346 84.528793,80.030617 87.111275,77.692375 
	C92.245277,73.043907 98.017296,69.061356 103.739365,65.113342 
	C108.331238,61.945129 114.170174,63.029385 116.525528,67.044983 
	C118.784874,70.896866 116.663223,76.858414 111.906769,80.002472 
	C111.637802,80.180283 111.331245,80.301239 110.785446,80.715630 
z"/>
<path fill="#000000" opacity="1.000000" stroke="none" 
	d="
M455.269287,331.347290 
	C456.633667,327.499390 457.732544,323.988525 458.903320,320.501801 
	C461.008392,314.232574 464.617157,311.725067 469.403809,313.144043 
	C474.015320,314.511078 476.440460,320.032440 474.691406,325.700012 
	C472.948853,331.346527 470.984161,336.924866 469.094635,342.525543 
	C467.181396,348.196442 463.364075,350.861908 459.054871,349.571991 
	C453.362854,347.868134 451.495026,344.142578 453.166077,337.628387 
	C453.680573,335.622711 454.406860,333.671387 455.269287,331.347290 
z"/>
<path fill="#000000" opacity="1.000000" stroke="none" 
	d="
M47.826309,406.330627 
	C43.203182,399.692291 38.608753,393.469147 34.539131,386.919891 
	C32.358910,383.411255 33.885101,377.837036 36.813148,375.738281 
	C39.458199,373.842377 45.991283,374.766632 48.290195,377.919586 
	C52.455635,383.632446 56.788895,389.360931 59.873325,395.660095 
	C61.218845,398.407959 60.909306,403.557770 59.108231,405.867798 
	C56.638874,409.034943 52.002163,409.787170 47.826309,406.330627 
z"/>
<path fill="#000000" opacity="1.000000" stroke="none" 
	d="
M389.550232,431.964203 
	C394.684448,426.894562 399.504364,422.057068 404.366180,417.261963 
	C407.632202,414.040771 414.427887,413.836090 417.307465,416.812683 
	C420.056274,419.654083 419.580688,425.908966 416.354980,429.143158 
	C412.139832,433.369415 407.914337,437.585388 403.691956,441.804443 
	C398.908142,446.584503 394.963287,447.415375 390.568787,443.808411 
	C386.670227,440.608398 387.499939,436.336975 389.550232,431.964203 
z"/>
<path fill="#000000" opacity="1.000000" stroke="none" 
	d="
M465.207886,230.695206 
	C462.960297,221.351669 460.651520,212.346420 459.284698,203.200363 
	C459.018646,201.419846 462.065186,197.931366 464.205383,197.283264 
	C467.568909,196.264679 472.609161,195.984726 473.836761,200.349823 
	C476.173920,208.660110 477.456482,217.275253 479.004700,225.795120 
	C479.646881,229.328934 477.913025,231.635956 474.585693,233.033218 
	C470.960358,234.555634 468.093536,233.524567 465.207886,230.695206 
z"/>
<path fill="#000000" opacity="1.000000" stroke="none" 
	d="
M263.986237,492.196899 
	C265.839172,498.374878 262.164703,503.857147 256.170654,503.967712 
	C248.847473,504.102844 241.519562,504.045197 234.194427,503.982971 
	C229.814560,503.945770 226.996796,500.728424 227.000000,495.980499 
	C227.003204,491.225861 229.817123,488.177917 234.232773,487.987305 
	C240.802505,487.703766 247.366760,487.136597 253.936859,487.076752 
	C257.866089,487.040894 261.740448,487.871277 263.986237,492.196899 
z"/>
<path fill="#000000" opacity="1.000000" stroke="none" 
	d="
M320.389526,479.896698 
	C322.073944,489.396301 320.284058,491.938690 310.974457,494.002686 
	C305.017365,495.323456 299.116241,497.028534 293.093658,497.877716 
	C288.800476,498.483093 285.537018,495.329315 285.002533,491.277557 
	C284.460388,487.167725 286.810974,483.174469 290.699005,482.139557 
	C297.521149,480.323639 304.456757,478.911652 311.222992,476.917023 
	C315.038147,475.792328 317.713989,476.843811 320.389526,479.896698 
z"/>
<path fill="#FFFFFF" opacity="1.000000" stroke="none" 
	d="
M322.999390,340.000214 
	C313.753479,348.864197 304.252075,357.172119 296.136749,366.665039 
	C286.198822,378.289948 278.580414,391.445374 278.035034,407.429962 
	C277.819672,413.742279 277.999725,420.068024 277.999725,426.342804 
	C179.646881,451.257233 76.776375,374.116211 74.274872,268.912323 
	C79.615822,272.037872 84.820366,274.249420 89.012100,277.693573 
	C101.408882,287.879425 113.080910,298.961060 125.638870,308.933655 
	C142.282730,322.150970 160.531372,333.109375 181.748856,336.641602 
	C199.045013,339.520966 216.706345,339.750977 233.785934,333.975006 
	C243.566132,330.667542 247.656815,324.727020 245.817108,315.239594 
	C245.189926,312.005249 243.141922,308.207794 240.541306,306.349976 
	C232.310623,300.470215 223.598572,295.240753 214.905365,290.039459 
	C207.869095,285.829590 200.505234,282.169220 193.442505,278.001068 
	C185.117371,273.087921 180.383743,263.337219 188.564941,254.084457 
	C196.707886,244.874924 205.399429,236.131714 214.139801,227.476257 
	C219.376892,222.290009 225.264557,217.767868 230.690796,212.763992 
	C241.135773,203.132065 251.926346,193.813690 261.712097,183.544373 
	C272.780701,171.928818 282.128845,159.112915 286.169037,142.925949 
	C289.985687,127.634514 286.326355,114.279327 278.087036,101.585976 
	C277.683838,100.964821 277.287140,100.339447 276.610016,99.283371 
	C299.927643,104.264107 320.513550,113.936569 339.441772,127.229630 
	C340.650391,128.078415 341.516907,130.835251 341.119720,132.325134 
	C337.897247,144.413330 334.578552,156.489471 330.740051,168.392212 
	C329.446716,172.402603 330.460388,174.956299 333.067902,177.555832 
	C338.613434,183.084457 344.138733,188.633438 349.682098,194.164261 
	C355.121613,199.591492 361.081512,198.998444 364.895142,192.298767 
	C369.579681,184.069077 373.909302,175.637329 378.579834,166.943863 
	C391.126740,185.189514 399.999451,204.873932 404.836823,226.428192 
	C399.371735,229.909149 393.810059,233.419220 388.281128,236.980103 
	C377.608917,243.853531 371.211456,253.284042 369.937622,266.207764 
	C368.098328,284.867981 361.692963,301.662659 348.245361,315.231750 
	C340.012024,323.539429 331.658203,331.727692 322.999390,340.000214 
z"/>
<path fill="#FFFFFF" opacity="1.000000" stroke="none" 
	d="
M185.775070,293.276276 
	C198.224640,300.016785 210.437561,306.444153 222.576340,313.008667 
	C224.539261,314.070160 226.172638,315.741028 227.958344,317.130219 
	C227.947235,317.640900 227.936111,318.151550 227.925003,318.662231 
	C221.918335,319.774841 215.955124,321.364319 209.897385,321.916565 
	C185.070633,324.179962 163.329346,315.481995 143.491302,301.648193 
	C134.418060,295.321075 126.364532,287.527954 117.875267,280.367981 
	C107.838921,271.903137 98.653183,262.265717 86.360085,256.884369 
	C82.594643,255.236053 78.532082,254.266510 73.889938,252.752731 
	C75.494507,243.603409 76.892860,233.567703 79.058197,223.700317 
	C83.990578,201.223557 94.024994,181.037140 107.821190,162.723190 
	C124.092079,141.124207 144.524261,124.450348 168.839874,112.698425 
	C184.401703,105.177269 200.744232,99.831474 218.030762,98.058945 
	C227.824142,97.054756 237.677765,96.614845 247.512085,96.059891 
	C248.853592,95.984184 250.628784,96.296867 251.546112,97.142509 
	C259.758972,104.713463 266.629944,112.999893 269.207764,124.468849 
	C271.542938,134.858154 269.341278,144.294495 264.367706,152.940552 
	C254.765839,169.632446 240.899155,182.588715 226.017609,194.598419 
	C217.346222,201.596390 209.050827,209.089233 200.903214,216.698761 
	C193.455643,223.654449 186.264343,230.906326 179.273422,238.323044 
	C172.224838,245.800949 167.430069,255.028381 167.363266,265.103302 
	C167.284500,276.982391 173.821472,286.132324 184.375244,292.045105 
	C184.801056,292.283691 185.136337,292.683838 185.775070,293.276276 
z"/>
<path fill="#FFFFFF" opacity="1.000000" stroke="none" 
	d="
M382.998962,126.013336 
	C373.648041,142.907272 364.331390,159.421753 354.456207,176.926208 
	C352.703796,174.780853 351.022858,173.303436 350.117889,171.447632 
	C349.257782,169.683762 348.415009,167.289536 348.922333,165.573959 
	C356.695068,139.288498 364.700378,113.071877 372.622162,86.830345 
	C373.712463,83.218765 372.816254,80.150536 370.014709,77.505104 
	C362.307770,70.227600 354.716248,62.827911 347.017883,55.541195 
	C343.915649,52.604843 340.483093,50.003582 337.506439,46.951782 
	C333.370605,42.711533 332.835541,37.064671 335.768982,32.749592 
	C339.665924,27.017183 344.911896,24.922350 350.431519,27.038931 
	C351.587646,27.482260 352.728790,28.249022 353.585663,29.145123 
	C364.107239,40.148335 374.558929,51.218361 385.065948,62.235546 
	C388.082764,65.398865 391.933136,65.777786 395.828705,64.613441 
	C410.719727,60.162720 425.558960,55.539215 440.426361,51.009140 
	C451.930664,47.503796 463.438354,44.008415 474.976532,40.617481 
	C476.000427,40.316563 477.531830,40.438435 478.359558,41.024658 
	C480.622498,42.627327 482.635193,44.583260 485.324402,46.895851 
	C470.354858,55.031334 456.535370,62.472843 442.785461,70.040756 
	C434.756958,74.459648 426.771851,78.966705 418.898987,83.655411 
	C414.518433,86.264290 413.523712,90.923035 416.330414,94.784904 
	C418.150024,97.288666 420.261963,99.597229 422.383789,101.861183 
	C433.123749,113.320564 443.960663,124.689514 454.651337,136.194458 
	C458.207245,140.021194 462.005920,140.845398 466.963470,139.112106 
	C473.167114,136.943115 479.547913,135.227112 485.942657,133.692368 
	C487.768646,133.254166 489.908356,134.123215 491.904205,134.392807 
	C491.864685,134.904617 491.825165,135.416428 491.785645,135.928238 
	C482.628510,140.943237 473.401184,145.836899 464.365387,151.061707 
	C462.207947,152.309204 460.222260,154.388565 458.958069,156.552872 
	C453.636536,165.663361 448.618134,174.950958 443.528961,184.101547 
	C438.873566,182.670578 440.819550,179.531998 441.407562,177.264282 
	C443.136536,170.596329 444.990448,163.934250 447.321259,157.459152 
	C448.662292,153.733810 447.692963,151.123352 445.149261,148.692566 
	C431.388397,135.542664 417.724060,122.287590 403.752899,109.364479 
	C399.469696,105.402611 394.165344,106.498795 391.193085,111.410530 
	C388.364014,116.085609 385.744751,120.887657 382.998962,126.013336 
z"/>
<path fill="#FFFFFF" opacity="1.000000" stroke="none" 
	d="
M294.998322,403.174988 
	C300.532959,383.827881 313.127747,370.121979 327.676758,357.676422 
	C345.742950,342.222137 363.688293,326.479126 375.654877,305.509186 
	C381.085236,295.993195 384.271393,285.289856 384.856720,274.297577 
	C385.534454,261.570068 392.034546,253.181564 402.385651,246.958359 
	C404.011261,245.981033 405.597260,244.937805 407.284271,243.872833 
	C418.913544,319.557953 368.378479,399.265594 293.625854,422.243134 
	C294.101288,415.775269 294.548340,409.693481 294.998322,403.174988 
z"/>
</svg>